<svg width="961" height="236" viewBox="0 0 961 236" fill="none" xmlns="http://www.w3.org/2000/svg">
<line x1="104.033" y1="6" x2="104.033" y2="216.001" stroke="#9E9E9E"/>
<line x1="93.2606" y1="208.5" x2="961" y2="208.5" stroke="#9E9E9E"/>
<path d="M5.537 125.588C5.607 125.63 5.66067 125.677 5.698 125.728C5.73067 125.775 5.747 125.833 5.747 125.903C5.747 125.982 5.70733 126.076 5.628 126.183C5.54867 126.29 5.46233 126.426 5.369 126.589C5.271 126.748 5.18233 126.941 5.103 127.17C5.02367 127.394 4.984 127.667 4.984 127.989C4.984 128.292 5.026 128.561 5.11 128.794C5.18933 129.023 5.299 129.216 5.439 129.375C5.579 129.529 5.74467 129.646 5.936 129.725C6.12267 129.804 6.32567 129.844 6.545 129.844C6.825 129.844 7.05833 129.776 7.245 129.641C7.427 129.501 7.58333 129.319 7.714 129.095C7.84467 128.866 7.959 128.61 8.057 128.325C8.15033 128.036 8.24833 127.742 8.351 127.443C8.45367 127.14 8.57033 126.846 8.701 126.561C8.827 126.272 8.988 126.015 9.184 125.791C9.38 125.562 9.62033 125.38 9.905 125.245C10.1897 125.105 10.5397 125.035 10.955 125.035C11.3937 125.035 11.8067 125.11 12.194 125.259C12.5767 125.408 12.9103 125.628 13.195 125.917C13.4797 126.202 13.7037 126.554 13.867 126.974C14.0303 127.389 14.112 127.863 14.112 128.395C14.112 129.048 13.9953 129.641 13.762 130.173C13.524 130.705 13.2043 131.16 12.803 131.538L12.159 131.146C12.1077 131.109 12.0657 131.064 12.033 131.013C11.9957 130.957 11.977 130.896 11.977 130.831C11.977 130.77 12.0027 130.703 12.054 130.628C12.1007 130.549 12.1613 130.46 12.236 130.362C12.3107 130.264 12.3923 130.152 12.481 130.026C12.5697 129.9 12.6513 129.758 12.726 129.599C12.8007 129.436 12.8637 129.251 12.915 129.046C12.9617 128.841 12.985 128.61 12.985 128.353C12.985 128.031 12.9407 127.744 12.852 127.492C12.7633 127.24 12.6397 127.028 12.481 126.855C12.3177 126.678 12.124 126.542 11.9 126.449C11.676 126.356 11.4263 126.309 11.151 126.309C10.8477 126.309 10.6003 126.379 10.409 126.519C10.213 126.654 10.0497 126.834 9.919 127.058C9.78833 127.282 9.67867 127.539 9.59 127.828C9.49667 128.117 9.40333 128.411 9.31 128.71C9.212 129.009 9.1 129.303 8.974 129.592C8.848 129.881 8.68467 130.138 8.484 130.362C8.28333 130.586 8.03367 130.768 7.735 130.908C7.43167 131.043 7.05833 131.111 6.615 131.111C6.26033 131.111 5.91733 131.043 5.586 130.908C5.25467 130.768 4.96067 130.567 4.704 130.306C4.44733 130.04 4.242 129.716 4.088 129.333C3.934 128.946 3.857 128.502 3.857 128.003C3.857 127.443 3.94567 126.934 4.123 126.477C4.30033 126.015 4.557 125.609 4.893 125.259L5.537 125.588ZM10.808 119.664C10.8267 120.238 10.8733 120.728 10.948 121.134C11.018 121.535 11.1113 121.864 11.228 122.121C11.3447 122.373 11.4823 122.557 11.641 122.674C11.7997 122.786 11.977 122.842 12.173 122.842C12.3597 122.842 12.5207 122.812 12.656 122.751C12.7913 122.69 12.9033 122.609 12.992 122.506C13.076 122.399 13.139 122.275 13.181 122.135C13.2183 121.99 13.237 121.836 13.237 121.673C13.237 121.454 13.216 121.253 13.174 121.071C13.1273 120.889 13.062 120.719 12.978 120.56C12.894 120.397 12.7937 120.243 12.677 120.098C12.5603 119.949 12.4273 119.804 12.278 119.664L10.808 119.664ZM7.91 123.689C7.532 123.297 7.24967 122.875 7.063 122.422C6.87633 121.969 6.783 121.468 6.783 120.917C6.783 120.52 6.84833 120.168 6.979 119.86C7.10967 119.552 7.29167 119.293 7.525 119.083C7.75833 118.873 8.04067 118.714 8.372 118.607C8.70333 118.5 9.06733 118.446 9.464 118.446L14 118.446L14 118.999C14 119.12 13.9813 119.214 13.944 119.279C13.902 119.344 13.8227 119.396 13.706 119.433L13.034 119.573C13.2067 119.76 13.3607 119.942 13.496 120.119C13.6267 120.296 13.7387 120.483 13.832 120.679C13.9207 120.875 13.9883 121.085 14.035 121.309C14.0863 121.528 14.112 121.773 14.112 122.044C14.112 122.319 14.0747 122.578 14 122.821C13.9207 123.064 13.804 123.276 13.65 123.458C13.496 123.635 13.3023 123.778 13.069 123.885C12.831 123.988 12.551 124.039 12.229 124.039C11.949 124.039 11.6807 123.962 11.424 123.808C11.1627 123.654 10.9317 123.404 10.731 123.059C10.5303 122.714 10.367 122.263 10.241 121.708C10.1103 121.153 10.0357 120.471 10.017 119.664L9.464 119.664C8.91333 119.664 8.498 119.783 8.218 120.021C7.93333 120.259 7.791 120.607 7.791 121.064C7.791 121.372 7.83067 121.631 7.91 121.841C7.98467 122.046 8.071 122.226 8.169 122.38C8.26233 122.529 8.34867 122.66 8.428 122.772C8.50267 122.879 8.54 122.987 8.54 123.094C8.54 123.178 8.519 123.25 8.477 123.311C8.43033 123.372 8.37433 123.423 8.309 123.465L7.91 123.689ZM3.689 115.26L14 115.26L14 116.506L3.689 116.506L3.689 115.26ZM9.681 108.494C9.39167 108.494 9.128 108.536 8.89 108.62C8.64733 108.699 8.43967 108.818 8.267 108.977C8.08967 109.131 7.95433 109.32 7.861 109.544C7.763 109.768 7.714 110.022 7.714 110.307C7.714 110.904 7.889 111.378 8.239 111.728C8.58433 112.073 9.065 112.288 9.681 112.372L9.681 108.494ZM13.006 107.486C13.1927 107.64 13.356 107.824 13.496 108.039C13.6313 108.253 13.7433 108.484 13.832 108.732C13.9207 108.974 13.986 109.226 14.028 109.488C14.0747 109.749 14.098 110.008 14.098 110.265C14.098 110.755 14.0163 111.207 13.853 111.623C13.685 112.033 13.4423 112.39 13.125 112.694C12.803 112.992 12.4063 113.226 11.935 113.394C11.4637 113.562 10.9223 113.646 10.311 113.646C9.81633 113.646 9.35433 113.571 8.925 113.422C8.49567 113.268 8.12467 113.048 7.812 112.764C7.49467 112.479 7.24733 112.131 7.07 111.721C6.888 111.31 6.797 110.848 6.797 110.335C6.797 109.91 6.86933 109.518 7.014 109.159C7.154 108.795 7.35933 108.482 7.63 108.221C7.896 107.955 8.22733 107.747 8.624 107.598C9.016 107.448 9.464 107.374 9.968 107.374C10.164 107.374 10.2947 107.395 10.36 107.437C10.4253 107.479 10.458 107.558 10.458 107.675L10.458 112.414C10.906 112.4 11.2957 112.339 11.627 112.232C11.9583 112.12 12.236 111.966 12.46 111.77C12.6793 111.574 12.845 111.34 12.957 111.07C13.0643 110.799 13.118 110.496 13.118 110.16C13.118 109.847 13.083 109.579 13.013 109.355C12.9383 109.126 12.859 108.93 12.775 108.767C12.691 108.603 12.614 108.468 12.544 108.361C12.4693 108.249 12.432 108.153 12.432 108.074C12.432 107.971 12.4717 107.892 12.551 107.836L13.006 107.486ZM8.078 101.713C8.18067 101.769 8.232 101.855 8.232 101.972C8.232 102.042 8.20633 102.121 8.155 102.21C8.10367 102.299 8.04767 102.408 7.987 102.539C7.92167 102.665 7.86333 102.817 7.812 102.994C7.756 103.171 7.728 103.381 7.728 103.624C7.728 103.834 7.756 104.023 7.812 104.191C7.86333 104.359 7.93567 104.504 8.029 104.625C8.12233 104.742 8.232 104.833 8.358 104.898C8.47933 104.959 8.61233 104.989 8.757 104.989C8.939 104.989 9.09067 104.938 9.212 104.835C9.33333 104.728 9.43833 104.588 9.527 104.415C9.61567 104.242 9.695 104.046 9.765 103.827C9.83033 103.608 9.90267 103.384 9.982 103.155C10.0567 102.922 10.1407 102.695 10.234 102.476C10.3273 102.257 10.444 102.061 10.584 101.888C10.724 101.715 10.8967 101.578 11.102 101.475C11.3027 101.368 11.5453 101.314 11.83 101.314C12.1567 101.314 12.46 101.372 12.74 101.489C13.0153 101.606 13.2557 101.778 13.461 102.007C13.6617 102.236 13.8203 102.516 13.937 102.847C14.0537 103.178 14.112 103.561 14.112 103.995C14.112 104.49 14.0327 104.938 13.874 105.339C13.7107 105.74 13.503 106.081 13.251 106.361L12.775 106.067C12.7143 106.03 12.6677 105.985 12.635 105.934C12.6023 105.883 12.586 105.817 12.586 105.738C12.586 105.654 12.6187 105.565 12.684 105.472C12.7493 105.379 12.8217 105.267 12.901 105.136C12.9803 105.001 13.0527 104.837 13.118 104.646C13.1833 104.455 13.216 104.217 13.216 103.932C13.216 103.689 13.1857 103.477 13.125 103.295C13.0597 103.113 12.9733 102.961 12.866 102.84C12.7587 102.719 12.635 102.63 12.495 102.574C12.355 102.513 12.2057 102.483 12.047 102.483C11.851 102.483 11.69 102.537 11.564 102.644C11.4333 102.747 11.3237 102.884 11.235 103.057C11.1417 103.23 11.0623 103.428 10.997 103.652C10.927 103.871 10.8547 104.098 10.78 104.331C10.7053 104.56 10.6213 104.786 10.528 105.01C10.43 105.229 10.3087 105.425 10.164 105.598C10.0193 105.771 9.842 105.911 9.632 106.018C9.41733 106.121 9.15833 106.172 8.855 106.172C8.58433 106.172 8.32533 106.116 8.078 106.004C7.826 105.892 7.60667 105.729 7.42 105.514C7.22867 105.299 7.077 105.036 6.965 104.723C6.853 104.41 6.797 104.053 6.797 103.652C6.797 103.185 6.87167 102.768 7.021 102.399C7.16567 102.026 7.36633 101.704 7.623 101.433L8.078 101.713ZM9.597 99.0584C10.5957 99.0584 11.5663 98.9324 12.509 98.6804C13.4517 98.4238 14.3477 98.0504 15.197 97.5604C15.3417 97.4858 15.4513 97.4671 15.526 97.5044C15.6053 97.5418 15.6683 97.5954 15.715 97.6654L16.051 98.2184C15.5143 98.5684 14.9823 98.8671 14.455 99.1144C13.9277 99.3571 13.398 99.5554 12.866 99.7094C12.334 99.8588 11.7997 99.9684 11.263 100.038C10.7217 100.108 10.1663 100.143 9.597 100.143C9.03233 100.143 8.47933 100.108 7.938 100.038C7.39666 99.9684 6.86233 99.8588 6.335 99.7094C5.803 99.5554 5.27333 99.3571 4.746 99.1144C4.21866 98.8671 3.68433 98.5684 3.143 98.2184L3.486 97.6654C3.53266 97.5954 3.59566 97.5418 3.675 97.5044C3.74966 97.4671 3.857 97.4858 3.997 97.5604C4.84633 98.0504 5.74233 98.4238 6.685 98.6804C7.62766 98.9324 8.59833 99.0584 9.597 99.0584ZM7.847 91.217C7.70233 91.203 7.54833 91.196 7.385 91.196C7.31966 91.196 7.25433 91.1983 7.189 91.203C7.12366 91.203 7.06066 91.2053 7 91.21L7 94.472L7.847 94.472L7.847 91.217ZM9.947 93.513C9.947 92.9017 9.835 92.4187 9.611 92.064C9.38233 91.7093 9.02066 91.4643 8.526 91.329L8.526 94.472L9.947 94.472L9.947 93.513ZM6.321 94.472L6.321 91.301C6.07366 91.3617 5.86366 91.4503 5.691 91.567C5.51833 91.6837 5.37833 91.833 5.271 92.015C5.16366 92.197 5.08666 92.4117 5.04 92.659C4.98866 92.9063 4.963 93.191 4.963 93.513L4.963 94.472L6.321 94.472ZM7 89.075L7 90.006C7.06533 90.0013 7.13066 89.999 7.196 89.999C7.25666 89.9943 7.31966 89.992 7.385 89.992C7.54833 89.992 7.70233 89.999 7.847 90.013L7.847 89.075L8.526 89.075L8.526 90.111C9.29133 90.2883 9.88633 90.6617 10.311 91.231C10.7357 91.7957 10.948 92.5563 10.948 93.513L10.948 94.472L14 94.472L14 95.753L8.526 95.753L8.526 96.796L7.847 96.796L7.847 95.753L7 95.753L7 96.796L6.321 96.796L6.321 95.753L3.969 95.753L3.969 93.513C3.969 92.5003 4.16966 91.7163 4.571 91.161C4.96766 90.6057 5.551 90.2487 6.321 90.09L6.321 89.075L7 89.075ZM9.597 86.8969C8.59833 86.8969 7.62766 87.0253 6.685 87.2819C5.74233 87.5339 4.84633 87.9049 3.997 88.3949C3.927 88.4323 3.86633 88.4556 3.815 88.4649C3.759 88.4743 3.71233 88.4719 3.675 88.4579C3.633 88.4439 3.598 88.4229 3.57 88.3949C3.53733 88.3623 3.50933 88.3273 3.486 88.2899L3.143 87.7369C3.68433 87.3869 4.21866 87.0906 4.746 86.8479C5.27333 86.6006 5.803 86.4023 6.335 86.2529C6.86233 86.0989 7.39666 85.9869 7.938 85.9169C8.47933 85.8469 9.03233 85.8119 9.597 85.8119C10.1663 85.8119 10.7217 85.8469 11.263 85.9169C11.7997 85.9869 12.334 86.0989 12.866 86.2529C13.398 86.4023 13.9277 86.6006 14.455 86.8479C14.9823 87.0906 15.5143 87.3869 16.051 87.7369L15.715 88.2899C15.6917 88.3273 15.6637 88.3623 15.631 88.3949C15.603 88.4229 15.568 88.4439 15.526 88.4579C15.4887 88.4719 15.442 88.4743 15.386 88.4649C15.33 88.4556 15.267 88.4323 15.197 88.3949C14.3477 87.9049 13.4517 87.5339 12.509 87.2819C11.5663 87.0253 10.5957 86.8969 9.597 86.8969Z" fill="#161C2E"/>
<line x1="93.2606" y1="168.5" x2="102.902" y2="168.5" stroke="#9E9E9E"/>
<line x1="93.2606" y1="128.5" x2="102.902" y2="128.5" stroke="#9E9E9E"/>
<line x1="93.2606" y1="88.5" x2="102.902" y2="88.5" stroke="#9E9E9E"/>
<line x1="93.2606" y1="48.5" x2="102.902" y2="48.5" stroke="#9E9E9E"/>
<line x1="93.2606" y1="8.5" x2="102.902" y2="8.5" stroke="#9E9E9E"/>
<path d="M94.0004 227.988C94.0004 228.865 93.9047 229.626 93.7134 230.27C93.5267 230.909 93.27 231.439 92.9434 231.859C92.6167 232.279 92.2294 232.592 91.7814 232.797C91.338 233.002 90.862 233.105 90.3534 233.105C89.84 233.105 89.3617 233.002 88.9184 232.797C88.4797 232.592 88.097 232.279 87.7704 231.859C87.4437 231.439 87.187 230.909 87.0004 230.27C86.8137 229.626 86.7204 228.865 86.7204 227.988C86.7204 227.111 86.8137 226.35 87.0004 225.706C87.187 225.062 87.4437 224.53 87.7704 224.11C88.097 223.685 88.4797 223.37 88.9184 223.165C89.3617 222.96 89.84 222.857 90.3534 222.857C90.862 222.857 91.338 222.96 91.7814 223.165C92.2294 223.37 92.6167 223.685 92.9434 224.11C93.27 224.53 93.5267 225.062 93.7134 225.706C93.9047 226.35 94.0004 227.111 94.0004 227.988ZM92.7054 227.988C92.7054 227.223 92.64 226.581 92.5094 226.063C92.3834 225.54 92.2107 225.12 91.9914 224.803C91.7767 224.486 91.527 224.259 91.2424 224.124C90.9577 223.984 90.6614 223.914 90.3534 223.914C90.0454 223.914 89.749 223.984 89.4644 224.124C89.1797 224.259 88.93 224.486 88.7154 224.803C88.5007 225.12 88.328 225.54 88.1974 226.063C88.0714 226.581 88.0084 227.223 88.0084 227.988C88.0084 228.753 88.0714 229.395 88.1974 229.913C88.328 230.431 88.5007 230.849 88.7154 231.166C88.93 231.483 89.1797 231.712 89.4644 231.852C89.749 231.987 90.0454 232.055 90.3534 232.055C90.6614 232.055 90.9577 231.987 91.2424 231.852C91.527 231.712 91.7767 231.483 91.9914 231.166C92.2107 230.849 92.3834 230.431 92.5094 229.913C92.64 229.395 92.7054 228.753 92.7054 227.988ZM102.121 227.988C102.121 228.865 102.026 229.626 101.834 230.27C101.648 230.909 101.391 231.439 101.064 231.859C100.738 232.279 100.35 232.592 99.9025 232.797C99.4591 233.002 98.9831 233.105 98.4745 233.105C97.9611 233.105 97.4828 233.002 97.0395 232.797C96.6008 232.592 96.2181 232.279 95.8915 231.859C95.5648 231.439 95.3081 230.909 95.1215 230.27C94.9348 229.626 94.8415 228.865 94.8415 227.988C94.8415 227.111 94.9348 226.35 95.1215 225.706C95.3081 225.062 95.5648 224.53 95.8915 224.11C96.2181 223.685 96.6008 223.37 97.0395 223.165C97.4828 222.96 97.9611 222.857 98.4745 222.857C98.9831 222.857 99.4591 222.96 99.9025 223.165C100.35 223.37 100.738 223.685 101.064 224.11C101.391 224.53 101.648 225.062 101.834 225.706C102.026 226.35 102.121 227.111 102.121 227.988ZM100.826 227.988C100.826 227.223 100.761 226.581 100.63 226.063C100.504 225.54 100.332 225.12 100.112 224.803C99.8978 224.486 99.6481 224.259 99.3635 224.124C99.0788 223.984 98.7825 223.914 98.4745 223.914C98.1665 223.914 97.8701 223.984 97.5855 224.124C97.3008 224.259 97.0511 224.486 96.8365 224.803C96.6218 225.12 96.4491 225.54 96.3185 226.063C96.1925 226.581 96.1295 227.223 96.1295 227.988C96.1295 228.753 96.1925 229.395 96.3185 229.913C96.4491 230.431 96.6218 230.849 96.8365 231.166C97.0511 231.483 97.3008 231.712 97.5855 231.852C97.8701 231.987 98.1665 232.055 98.4745 232.055C98.7825 232.055 99.0788 231.987 99.3635 231.852C99.6481 231.712 99.8978 231.483 100.112 231.166C100.332 230.849 100.504 230.431 100.63 229.913C100.761 229.395 100.826 228.753 100.826 227.988ZM103.32 232.23C103.32 232.109 103.341 231.994 103.383 231.887C103.429 231.78 103.49 231.686 103.565 231.607C103.644 231.528 103.737 231.465 103.845 231.418C103.952 231.371 104.066 231.348 104.188 231.348C104.309 231.348 104.423 231.371 104.531 231.418C104.638 231.465 104.731 231.528 104.811 231.607C104.89 231.686 104.953 231.78 105 231.887C105.046 231.994 105.07 232.109 105.07 232.23C105.07 232.356 105.046 232.473 105 232.58C104.953 232.683 104.89 232.774 104.811 232.853C104.731 232.932 104.638 232.993 104.531 233.035C104.423 233.082 104.309 233.105 104.188 233.105C104.066 233.105 103.952 233.082 103.845 233.035C103.737 232.993 103.644 232.932 103.565 232.853C103.49 232.774 103.429 232.683 103.383 232.58C103.341 232.473 103.32 232.356 103.32 232.23ZM113.551 227.988C113.551 228.865 113.455 229.626 113.264 230.27C113.077 230.909 112.821 231.439 112.494 231.859C112.167 232.279 111.78 232.592 111.332 232.797C110.889 233.002 110.413 233.105 109.904 233.105C109.391 233.105 108.912 233.002 108.469 232.797C108.03 232.592 107.648 232.279 107.321 231.859C106.994 231.439 106.738 230.909 106.551 230.27C106.364 229.626 106.271 228.865 106.271 227.988C106.271 227.111 106.364 226.35 106.551 225.706C106.738 225.062 106.994 224.53 107.321 224.11C107.648 223.685 108.03 223.37 108.469 223.165C108.912 222.96 109.391 222.857 109.904 222.857C110.413 222.857 110.889 222.96 111.332 223.165C111.78 223.37 112.167 223.685 112.494 224.11C112.821 224.53 113.077 225.062 113.264 225.706C113.455 226.35 113.551 227.111 113.551 227.988ZM112.256 227.988C112.256 227.223 112.191 226.581 112.06 226.063C111.934 225.54 111.761 225.12 111.542 224.803C111.327 224.486 111.078 224.259 110.793 224.124C110.508 223.984 110.212 223.914 109.904 223.914C109.596 223.914 109.3 223.984 109.015 224.124C108.73 224.259 108.481 224.486 108.266 224.803C108.051 225.12 107.879 225.54 107.748 226.063C107.622 226.581 107.559 227.223 107.559 227.988C107.559 228.753 107.622 229.395 107.748 229.913C107.879 230.431 108.051 230.849 108.266 231.166C108.481 231.483 108.73 231.712 109.015 231.852C109.3 231.987 109.596 232.055 109.904 232.055C110.212 232.055 110.508 231.987 110.793 231.852C111.078 231.712 111.327 231.483 111.542 231.166C111.761 230.849 111.934 230.431 112.06 229.913C112.191 229.395 112.256 228.753 112.256 227.988ZM121.672 227.988C121.672 228.865 121.577 229.626 121.385 230.27C121.199 230.909 120.942 231.439 120.615 231.859C120.289 232.279 119.901 232.592 119.453 232.797C119.01 233.002 118.534 233.105 118.025 233.105C117.512 233.105 117.034 233.002 116.59 232.797C116.152 232.592 115.769 232.279 115.442 231.859C115.116 231.439 114.859 230.909 114.672 230.27C114.486 229.626 114.392 228.865 114.392 227.988C114.392 227.111 114.486 226.35 114.672 225.706C114.859 225.062 115.116 224.53 115.442 224.11C115.769 223.685 116.152 223.37 116.59 223.165C117.034 222.96 117.512 222.857 118.025 222.857C118.534 222.857 119.01 222.96 119.453 223.165C119.901 223.37 120.289 223.685 120.615 224.11C120.942 224.53 121.199 225.062 121.385 225.706C121.577 226.35 121.672 227.111 121.672 227.988ZM120.377 227.988C120.377 227.223 120.312 226.581 120.181 226.063C120.055 225.54 119.883 225.12 119.663 224.803C119.449 224.486 119.199 224.259 118.914 224.124C118.63 223.984 118.333 223.914 118.025 223.914C117.717 223.914 117.421 223.984 117.136 224.124C116.852 224.259 116.602 224.486 116.387 224.803C116.173 225.12 116 225.54 115.869 226.063C115.743 226.581 115.68 227.223 115.68 227.988C115.68 228.753 115.743 229.395 115.869 229.913C116 230.431 116.173 230.849 116.387 231.166C116.602 231.483 116.852 231.712 117.136 231.852C117.421 231.987 117.717 232.055 118.025 232.055C118.333 232.055 118.63 231.987 118.914 231.852C119.199 231.712 119.449 231.483 119.663 231.166C119.883 230.849 120.055 230.431 120.181 229.913C120.312 229.395 120.377 228.753 120.377 227.988Z" fill="#878787"/>
<path d="M151.076 227.988C151.076 228.865 150.981 229.626 150.789 230.27C150.603 230.909 150.346 231.439 150.019 231.859C149.693 232.279 149.305 232.592 148.857 232.797C148.414 233.002 147.938 233.105 147.429 233.105C146.916 233.105 146.438 233.002 145.994 232.797C145.556 232.592 145.173 232.279 144.846 231.859C144.52 231.439 144.263 230.909 144.076 230.27C143.89 229.626 143.796 228.865 143.796 227.988C143.796 227.111 143.89 226.35 144.076 225.706C144.263 225.062 144.52 224.53 144.846 224.11C145.173 223.685 145.556 223.37 145.994 223.165C146.438 222.96 146.916 222.857 147.429 222.857C147.938 222.857 148.414 222.96 148.857 223.165C149.305 223.37 149.693 223.685 150.019 224.11C150.346 224.53 150.603 225.062 150.789 225.706C150.981 226.35 151.076 227.111 151.076 227.988ZM149.781 227.988C149.781 227.223 149.716 226.581 149.585 226.063C149.459 225.54 149.287 225.12 149.067 224.803C148.853 224.486 148.603 224.259 148.318 224.124C148.034 223.984 147.737 223.914 147.429 223.914C147.121 223.914 146.825 223.984 146.54 224.124C146.256 224.259 146.006 224.486 145.791 224.803C145.577 225.12 145.404 225.54 145.273 226.063C145.147 226.581 145.084 227.223 145.084 227.988C145.084 228.753 145.147 229.395 145.273 229.913C145.404 230.431 145.577 230.849 145.791 231.166C146.006 231.483 146.256 231.712 146.54 231.852C146.825 231.987 147.121 232.055 147.429 232.055C147.737 232.055 148.034 231.987 148.318 231.852C148.603 231.712 148.853 231.483 149.067 231.166C149.287 230.849 149.459 230.431 149.585 229.913C149.716 229.395 149.781 228.753 149.781 227.988ZM159.197 227.988C159.197 228.865 159.102 229.626 158.91 230.27C158.724 230.909 158.467 231.439 158.14 231.859C157.814 232.279 157.426 232.592 156.978 232.797C156.535 233.002 156.059 233.105 155.55 233.105C155.037 233.105 154.559 233.002 154.115 232.797C153.677 232.592 153.294 232.279 152.967 231.859C152.641 231.439 152.384 230.909 152.197 230.27C152.011 229.626 151.917 228.865 151.917 227.988C151.917 227.111 152.011 226.35 152.197 225.706C152.384 225.062 152.641 224.53 152.967 224.11C153.294 223.685 153.677 223.37 154.115 223.165C154.559 222.96 155.037 222.857 155.55 222.857C156.059 222.857 156.535 222.96 156.978 223.165C157.426 223.37 157.814 223.685 158.14 224.11C158.467 224.53 158.724 225.062 158.91 225.706C159.102 226.35 159.197 227.111 159.197 227.988ZM157.902 227.988C157.902 227.223 157.837 226.581 157.706 226.063C157.58 225.54 157.408 225.12 157.188 224.803C156.974 224.486 156.724 224.259 156.439 224.124C156.155 223.984 155.858 223.914 155.55 223.914C155.242 223.914 154.946 223.984 154.661 224.124C154.377 224.259 154.127 224.486 153.912 224.803C153.698 225.12 153.525 225.54 153.394 226.063C153.268 226.581 153.205 227.223 153.205 227.988C153.205 228.753 153.268 229.395 153.394 229.913C153.525 230.431 153.698 230.849 153.912 231.166C154.127 231.483 154.377 231.712 154.661 231.852C154.946 231.987 155.242 232.055 155.55 232.055C155.858 232.055 156.155 231.987 156.439 231.852C156.724 231.712 156.974 231.483 157.188 231.166C157.408 230.849 157.58 230.431 157.706 229.913C157.837 229.395 157.902 228.753 157.902 227.988ZM160.396 232.23C160.396 232.109 160.417 231.994 160.459 231.887C160.505 231.78 160.566 231.686 160.641 231.607C160.72 231.528 160.813 231.465 160.921 231.418C161.028 231.371 161.142 231.348 161.264 231.348C161.385 231.348 161.499 231.371 161.607 231.418C161.714 231.465 161.807 231.528 161.887 231.607C161.966 231.686 162.029 231.78 162.076 231.887C162.122 231.994 162.146 232.109 162.146 232.23C162.146 232.356 162.122 232.473 162.076 232.58C162.029 232.683 161.966 232.774 161.887 232.853C161.807 232.932 161.714 232.993 161.607 233.035C161.499 233.082 161.385 233.105 161.264 233.105C161.142 233.105 161.028 233.082 160.921 233.035C160.813 232.993 160.72 232.932 160.641 232.853C160.566 232.774 160.505 232.683 160.459 232.58C160.417 232.473 160.396 232.356 160.396 232.23ZM170.627 227.988C170.627 228.865 170.531 229.626 170.34 230.27C170.153 230.909 169.897 231.439 169.57 231.859C169.243 232.279 168.856 232.592 168.408 232.797C167.965 233.002 167.489 233.105 166.98 233.105C166.467 233.105 165.988 233.002 165.545 232.797C165.106 232.592 164.724 232.279 164.397 231.859C164.07 231.439 163.814 230.909 163.627 230.27C163.44 229.626 163.347 228.865 163.347 227.988C163.347 227.111 163.44 226.35 163.627 225.706C163.814 225.062 164.07 224.53 164.397 224.11C164.724 223.685 165.106 223.37 165.545 223.165C165.988 222.96 166.467 222.857 166.98 222.857C167.489 222.857 167.965 222.96 168.408 223.165C168.856 223.37 169.243 223.685 169.57 224.11C169.897 224.53 170.153 225.062 170.34 225.706C170.531 226.35 170.627 227.111 170.627 227.988ZM169.332 227.988C169.332 227.223 169.267 226.581 169.136 226.063C169.01 225.54 168.837 225.12 168.618 224.803C168.403 224.486 168.154 224.259 167.869 224.124C167.584 223.984 167.288 223.914 166.98 223.914C166.672 223.914 166.376 223.984 166.091 224.124C165.806 224.259 165.557 224.486 165.342 224.803C165.127 225.12 164.955 225.54 164.824 226.063C164.698 226.581 164.635 227.223 164.635 227.988C164.635 228.753 164.698 229.395 164.824 229.913C164.955 230.431 165.127 230.849 165.342 231.166C165.557 231.483 165.806 231.712 166.091 231.852C166.376 231.987 166.672 232.055 166.98 232.055C167.288 232.055 167.584 231.987 167.869 231.852C168.154 231.712 168.403 231.483 168.618 231.166C168.837 230.849 169.01 230.431 169.136 229.913C169.267 229.395 169.332 228.753 169.332 227.988ZM178.748 227.988C178.748 228.865 178.653 229.626 178.461 230.27C178.275 230.909 178.018 231.439 177.691 231.859C177.365 232.279 176.977 232.592 176.529 232.797C176.086 233.002 175.61 233.105 175.101 233.105C174.588 233.105 174.11 233.002 173.666 232.797C173.228 232.592 172.845 232.279 172.518 231.859C172.192 231.439 171.935 230.909 171.748 230.27C171.562 229.626 171.468 228.865 171.468 227.988C171.468 227.111 171.562 226.35 171.748 225.706C171.935 225.062 172.192 224.53 172.518 224.11C172.845 223.685 173.228 223.37 173.666 223.165C174.11 222.96 174.588 222.857 175.101 222.857C175.61 222.857 176.086 222.96 176.529 223.165C176.977 223.37 177.365 223.685 177.691 224.11C178.018 224.53 178.275 225.062 178.461 225.706C178.653 226.35 178.748 227.111 178.748 227.988ZM177.453 227.988C177.453 227.223 177.388 226.581 177.257 226.063C177.131 225.54 176.959 225.12 176.739 224.803C176.525 224.486 176.275 224.259 175.99 224.124C175.706 223.984 175.409 223.914 175.101 223.914C174.793 223.914 174.497 223.984 174.212 224.124C173.928 224.259 173.678 224.486 173.463 224.803C173.249 225.12 173.076 225.54 172.945 226.063C172.819 226.581 172.756 227.223 172.756 227.988C172.756 228.753 172.819 229.395 172.945 229.913C173.076 230.431 173.249 230.849 173.463 231.166C173.678 231.483 173.928 231.712 174.212 231.852C174.497 231.987 174.793 232.055 175.101 232.055C175.409 232.055 175.706 231.987 175.99 231.852C176.275 231.712 176.525 231.483 176.739 231.166C176.959 230.849 177.131 230.431 177.257 229.913C177.388 229.395 177.453 228.753 177.453 227.988Z" fill="#878787"/>
<path d="M251.955 227.988C251.955 228.865 251.859 229.626 251.668 230.27C251.481 230.909 251.224 231.439 250.898 231.859C250.571 232.279 250.184 232.592 249.736 232.797C249.292 233.002 248.816 233.105 248.308 233.105C247.794 233.105 247.316 233.002 246.873 232.797C246.434 232.592 246.051 232.279 245.725 231.859C245.398 231.439 245.141 230.909 244.955 230.27C244.768 229.626 244.675 228.865 244.675 227.988C244.675 227.111 244.768 226.35 244.955 225.706C245.141 225.062 245.398 224.53 245.725 224.11C246.051 223.685 246.434 223.37 246.873 223.165C247.316 222.96 247.794 222.857 248.308 222.857C248.816 222.857 249.292 222.96 249.736 223.165C250.184 223.37 250.571 223.685 250.898 224.11C251.224 224.53 251.481 225.062 251.668 225.706C251.859 226.35 251.955 227.111 251.955 227.988ZM250.66 227.988C250.66 227.223 250.594 226.581 250.464 226.063C250.338 225.54 250.165 225.12 249.946 224.803C249.731 224.486 249.481 224.259 249.197 224.124C248.912 223.984 248.616 223.914 248.308 223.914C248 223.914 247.703 223.984 247.419 224.124C247.134 224.259 246.884 224.486 246.67 224.803C246.455 225.12 246.282 225.54 246.152 226.063C246.026 226.581 245.963 227.223 245.963 227.988C245.963 228.753 246.026 229.395 246.152 229.913C246.282 230.431 246.455 230.849 246.67 231.166C246.884 231.483 247.134 231.712 247.419 231.852C247.703 231.987 248 232.055 248.308 232.055C248.616 232.055 248.912 231.987 249.197 231.852C249.481 231.712 249.731 231.483 249.946 231.166C250.165 230.849 250.338 230.431 250.464 229.913C250.594 229.395 250.66 228.753 250.66 227.988ZM260.076 227.988C260.076 228.865 259.98 229.626 259.789 230.27C259.602 230.909 259.346 231.439 259.019 231.859C258.692 232.279 258.305 232.592 257.857 232.797C257.414 233.002 256.938 233.105 256.429 233.105C255.916 233.105 255.437 233.002 254.994 232.797C254.555 232.592 254.173 232.279 253.846 231.859C253.519 231.439 253.263 230.909 253.076 230.27C252.889 229.626 252.796 228.865 252.796 227.988C252.796 227.111 252.889 226.35 253.076 225.706C253.263 225.062 253.519 224.53 253.846 224.11C254.173 223.685 254.555 223.37 254.994 223.165C255.437 222.96 255.916 222.857 256.429 222.857C256.938 222.857 257.414 222.96 257.857 223.165C258.305 223.37 258.692 223.685 259.019 224.11C259.346 224.53 259.602 225.062 259.789 225.706C259.98 226.35 260.076 227.111 260.076 227.988ZM258.781 227.988C258.781 227.223 258.716 226.581 258.585 226.063C258.459 225.54 258.286 225.12 258.067 224.803C257.852 224.486 257.603 224.259 257.318 224.124C257.033 223.984 256.737 223.914 256.429 223.914C256.121 223.914 255.825 223.984 255.54 224.124C255.255 224.259 255.006 224.486 254.791 224.803C254.576 225.12 254.404 225.54 254.273 226.063C254.147 226.581 254.084 227.223 254.084 227.988C254.084 228.753 254.147 229.395 254.273 229.913C254.404 230.431 254.576 230.849 254.791 231.166C255.006 231.483 255.255 231.712 255.54 231.852C255.825 231.987 256.121 232.055 256.429 232.055C256.737 232.055 257.033 231.987 257.318 231.852C257.603 231.712 257.852 231.483 258.067 231.166C258.286 230.849 258.459 230.431 258.585 229.913C258.716 229.395 258.781 228.753 258.781 227.988ZM261.274 232.23C261.274 232.109 261.295 231.994 261.337 231.887C261.384 231.78 261.444 231.686 261.519 231.607C261.598 231.528 261.692 231.465 261.799 231.418C261.906 231.371 262.021 231.348 262.142 231.348C262.263 231.348 262.378 231.371 262.485 231.418C262.592 231.465 262.686 231.528 262.765 231.607C262.844 231.686 262.907 231.78 262.954 231.887C263.001 231.994 263.024 232.109 263.024 232.23C263.024 232.356 263.001 232.473 262.954 232.58C262.907 232.683 262.844 232.774 262.765 232.853C262.686 232.932 262.592 232.993 262.485 233.035C262.378 233.082 262.263 233.105 262.142 233.105C262.021 233.105 261.906 233.082 261.799 233.035C261.692 232.993 261.598 232.932 261.519 232.853C261.444 232.774 261.384 232.683 261.337 232.58C261.295 232.473 261.274 232.356 261.274 232.23ZM271.506 227.988C271.506 228.865 271.41 229.626 271.219 230.27C271.032 230.909 270.775 231.439 270.449 231.859C270.122 232.279 269.735 232.592 269.287 232.797C268.843 233.002 268.367 233.105 267.859 233.105C267.345 233.105 266.867 233.002 266.424 232.797C265.985 232.592 265.602 232.279 265.276 231.859C264.949 231.439 264.692 230.909 264.506 230.27C264.319 229.626 264.226 228.865 264.226 227.988C264.226 227.111 264.319 226.35 264.506 225.706C264.692 225.062 264.949 224.53 265.276 224.11C265.602 223.685 265.985 223.37 266.424 223.165C266.867 222.96 267.345 222.857 267.859 222.857C268.367 222.857 268.843 222.96 269.287 223.165C269.735 223.37 270.122 223.685 270.449 224.11C270.775 224.53 271.032 225.062 271.219 225.706C271.41 226.35 271.506 227.111 271.506 227.988ZM270.211 227.988C270.211 227.223 270.145 226.581 270.015 226.063C269.889 225.54 269.716 225.12 269.497 224.803C269.282 224.486 269.032 224.259 268.748 224.124C268.463 223.984 268.167 223.914 267.859 223.914C267.551 223.914 267.254 223.984 266.97 224.124C266.685 224.259 266.435 224.486 266.221 224.803C266.006 225.12 265.833 225.54 265.703 226.063C265.577 226.581 265.514 227.223 265.514 227.988C265.514 228.753 265.577 229.395 265.703 229.913C265.833 230.431 266.006 230.849 266.221 231.166C266.435 231.483 266.685 231.712 266.97 231.852C267.254 231.987 267.551 232.055 267.859 232.055C268.167 232.055 268.463 231.987 268.748 231.852C269.032 231.712 269.282 231.483 269.497 231.166C269.716 230.849 269.889 230.431 270.015 229.913C270.145 229.395 270.211 228.753 270.211 227.988ZM279.627 227.988C279.627 228.865 279.531 229.626 279.34 230.27C279.153 230.909 278.896 231.439 278.57 231.859C278.243 232.279 277.856 232.592 277.408 232.797C276.964 233.002 276.488 233.105 275.98 233.105C275.466 233.105 274.988 233.002 274.545 232.797C274.106 232.592 273.723 232.279 273.397 231.859C273.07 231.439 272.813 230.909 272.627 230.27C272.44 229.626 272.347 228.865 272.347 227.988C272.347 227.111 272.44 226.35 272.627 225.706C272.813 225.062 273.07 224.53 273.397 224.11C273.723 223.685 274.106 223.37 274.545 223.165C274.988 222.96 275.466 222.857 275.98 222.857C276.488 222.857 276.964 222.96 277.408 223.165C277.856 223.37 278.243 223.685 278.57 224.11C278.896 224.53 279.153 225.062 279.34 225.706C279.531 226.35 279.627 227.111 279.627 227.988ZM278.332 227.988C278.332 227.223 278.266 226.581 278.136 226.063C278.01 225.54 277.837 225.12 277.618 224.803C277.403 224.486 277.153 224.259 276.869 224.124C276.584 223.984 276.288 223.914 275.98 223.914C275.672 223.914 275.375 223.984 275.091 224.124C274.806 224.259 274.556 224.486 274.342 224.803C274.127 225.12 273.954 225.54 273.824 226.063C273.698 226.581 273.635 227.223 273.635 227.988C273.635 228.753 273.698 229.395 273.824 229.913C273.954 230.431 274.127 230.849 274.342 231.166C274.556 231.483 274.806 231.712 275.091 231.852C275.375 231.987 275.672 232.055 275.98 232.055C276.288 232.055 276.584 231.987 276.869 231.852C277.153 231.712 277.403 231.483 277.618 231.166C277.837 230.849 278.01 230.431 278.136 229.913C278.266 229.395 278.332 228.753 278.332 227.988Z" fill="#878787"/>
<path d="M352.833 227.988C352.833 228.865 352.738 229.626 352.546 230.27C352.36 230.909 352.103 231.439 351.776 231.859C351.45 232.279 351.062 232.592 350.614 232.797C350.171 233.002 349.695 233.105 349.186 233.105C348.673 233.105 348.195 233.002 347.751 232.797C347.313 232.592 346.93 232.279 346.603 231.859C346.277 231.439 346.02 230.909 345.833 230.27C345.647 229.626 345.553 228.865 345.553 227.988C345.553 227.111 345.647 226.35 345.833 225.706C346.02 225.062 346.277 224.53 346.603 224.11C346.93 223.685 347.313 223.37 347.751 223.165C348.195 222.96 348.673 222.857 349.186 222.857C349.695 222.857 350.171 222.96 350.614 223.165C351.062 223.37 351.45 223.685 351.776 224.11C352.103 224.53 352.36 225.062 352.546 225.706C352.738 226.35 352.833 227.111 352.833 227.988ZM351.538 227.988C351.538 227.223 351.473 226.581 351.342 226.063C351.216 225.54 351.044 225.12 350.824 224.803C350.61 224.486 350.36 224.259 350.075 224.124C349.791 223.984 349.494 223.914 349.186 223.914C348.878 223.914 348.582 223.984 348.297 224.124C348.013 224.259 347.763 224.486 347.548 224.803C347.334 225.12 347.161 225.54 347.03 226.063C346.904 226.581 346.841 227.223 346.841 227.988C346.841 228.753 346.904 229.395 347.03 229.913C347.161 230.431 347.334 230.849 347.548 231.166C347.763 231.483 348.013 231.712 348.297 231.852C348.582 231.987 348.878 232.055 349.186 232.055C349.494 232.055 349.791 231.987 350.075 231.852C350.36 231.712 350.61 231.483 350.824 231.166C351.044 230.849 351.216 230.431 351.342 229.913C351.473 229.395 351.538 228.753 351.538 227.988ZM360.954 227.988C360.954 228.865 360.859 229.626 360.667 230.27C360.481 230.909 360.224 231.439 359.897 231.859C359.571 232.279 359.183 232.592 358.735 232.797C358.292 233.002 357.816 233.105 357.307 233.105C356.794 233.105 356.316 233.002 355.872 232.797C355.434 232.592 355.051 232.279 354.724 231.859C354.398 231.439 354.141 230.909 353.954 230.27C353.768 229.626 353.674 228.865 353.674 227.988C353.674 227.111 353.768 226.35 353.954 225.706C354.141 225.062 354.398 224.53 354.724 224.11C355.051 223.685 355.434 223.37 355.872 223.165C356.316 222.96 356.794 222.857 357.307 222.857C357.816 222.857 358.292 222.96 358.735 223.165C359.183 223.37 359.571 223.685 359.897 224.11C360.224 224.53 360.481 225.062 360.667 225.706C360.859 226.35 360.954 227.111 360.954 227.988ZM359.659 227.988C359.659 227.223 359.594 226.581 359.463 226.063C359.337 225.54 359.165 225.12 358.945 224.803C358.731 224.486 358.481 224.259 358.196 224.124C357.912 223.984 357.615 223.914 357.307 223.914C356.999 223.914 356.703 223.984 356.418 224.124C356.134 224.259 355.884 224.486 355.669 224.803C355.455 225.12 355.282 225.54 355.151 226.063C355.025 226.581 354.962 227.223 354.962 227.988C354.962 228.753 355.025 229.395 355.151 229.913C355.282 230.431 355.455 230.849 355.669 231.166C355.884 231.483 356.134 231.712 356.418 231.852C356.703 231.987 356.999 232.055 357.307 232.055C357.615 232.055 357.912 231.987 358.196 231.852C358.481 231.712 358.731 231.483 358.945 231.166C359.165 230.849 359.337 230.431 359.463 229.913C359.594 229.395 359.659 228.753 359.659 227.988ZM362.152 232.23C362.152 232.109 362.173 231.994 362.215 231.887C362.262 231.78 362.323 231.686 362.397 231.607C362.477 231.528 362.57 231.465 362.677 231.418C362.785 231.371 362.899 231.348 363.02 231.348C363.142 231.348 363.256 231.371 363.363 231.418C363.471 231.465 363.564 231.528 363.643 231.607C363.723 231.686 363.786 231.78 363.832 231.887C363.879 231.994 363.902 232.109 363.902 232.23C363.902 232.356 363.879 232.473 363.832 232.58C363.786 232.683 363.723 232.774 363.643 232.853C363.564 232.932 363.471 232.993 363.363 233.035C363.256 233.082 363.142 233.105 363.02 233.105C362.899 233.105 362.785 233.082 362.677 233.035C362.57 232.993 362.477 232.932 362.397 232.853C362.323 232.774 362.262 232.683 362.215 232.58C362.173 232.473 362.152 232.356 362.152 232.23ZM372.384 227.988C372.384 228.865 372.288 229.626 372.097 230.27C371.91 230.909 371.654 231.439 371.327 231.859C371 232.279 370.613 232.592 370.165 232.797C369.722 233.002 369.246 233.105 368.737 233.105C368.224 233.105 367.745 233.002 367.302 232.797C366.863 232.592 366.481 232.279 366.154 231.859C365.827 231.439 365.571 230.909 365.384 230.27C365.197 229.626 365.104 228.865 365.104 227.988C365.104 227.111 365.197 226.35 365.384 225.706C365.571 225.062 365.827 224.53 366.154 224.11C366.481 223.685 366.863 223.37 367.302 223.165C367.745 222.96 368.224 222.857 368.737 222.857C369.246 222.857 369.722 222.96 370.165 223.165C370.613 223.37 371 223.685 371.327 224.11C371.654 224.53 371.91 225.062 372.097 225.706C372.288 226.35 372.384 227.111 372.384 227.988ZM371.089 227.988C371.089 227.223 371.024 226.581 370.893 226.063C370.767 225.54 370.594 225.12 370.375 224.803C370.16 224.486 369.911 224.259 369.626 224.124C369.341 223.984 369.045 223.914 368.737 223.914C368.429 223.914 368.133 223.984 367.848 224.124C367.563 224.259 367.314 224.486 367.099 224.803C366.884 225.12 366.712 225.54 366.581 226.063C366.455 226.581 366.392 227.223 366.392 227.988C366.392 228.753 366.455 229.395 366.581 229.913C366.712 230.431 366.884 230.849 367.099 231.166C367.314 231.483 367.563 231.712 367.848 231.852C368.133 231.987 368.429 232.055 368.737 232.055C369.045 232.055 369.341 231.987 369.626 231.852C369.911 231.712 370.16 231.483 370.375 231.166C370.594 230.849 370.767 230.431 370.893 229.913C371.024 229.395 371.089 228.753 371.089 227.988ZM380.505 227.988C380.505 228.865 380.409 229.626 380.218 230.27C380.031 230.909 379.775 231.439 379.448 231.859C379.121 232.279 378.734 232.592 378.286 232.797C377.843 233.002 377.367 233.105 376.858 233.105C376.345 233.105 375.866 233.002 375.423 232.797C374.984 232.592 374.602 232.279 374.275 231.859C373.948 231.439 373.692 230.909 373.505 230.27C373.318 229.626 373.225 228.865 373.225 227.988C373.225 227.111 373.318 226.35 373.505 225.706C373.692 225.062 373.948 224.53 374.275 224.11C374.602 223.685 374.984 223.37 375.423 223.165C375.866 222.96 376.345 222.857 376.858 222.857C377.367 222.857 377.843 222.96 378.286 223.165C378.734 223.37 379.121 223.685 379.448 224.11C379.775 224.53 380.031 225.062 380.218 225.706C380.409 226.35 380.505 227.111 380.505 227.988ZM379.21 227.988C379.21 227.223 379.145 226.581 379.014 226.063C378.888 225.54 378.715 225.12 378.496 224.803C378.281 224.486 378.032 224.259 377.747 224.124C377.462 223.984 377.166 223.914 376.858 223.914C376.55 223.914 376.254 223.984 375.969 224.124C375.684 224.259 375.435 224.486 375.22 224.803C375.005 225.12 374.833 225.54 374.702 226.063C374.576 226.581 374.513 227.223 374.513 227.988C374.513 228.753 374.576 229.395 374.702 229.913C374.833 230.431 375.005 230.849 375.22 231.166C375.435 231.483 375.684 231.712 375.969 231.852C376.254 231.987 376.55 232.055 376.858 232.055C377.166 232.055 377.462 231.987 377.747 231.852C378.032 231.712 378.281 231.483 378.496 231.166C378.715 230.849 378.888 230.431 379.014 229.913C379.145 229.395 379.21 228.753 379.21 227.988Z" fill="#878787"/>
<path d="M453.712 227.988C453.712 228.865 453.616 229.626 453.425 230.27C453.238 230.909 452.981 231.439 452.655 231.859C452.328 232.279 451.941 232.592 451.493 232.797C451.049 233.002 450.573 233.105 450.065 233.105C449.551 233.105 449.073 233.002 448.63 232.797C448.191 232.592 447.808 232.279 447.482 231.859C447.155 231.439 446.898 230.909 446.712 230.27C446.525 229.626 446.432 228.865 446.432 227.988C446.432 227.111 446.525 226.35 446.712 225.706C446.898 225.062 447.155 224.53 447.482 224.11C447.808 223.685 448.191 223.37 448.63 223.165C449.073 222.96 449.551 222.857 450.065 222.857C450.573 222.857 451.049 222.96 451.493 223.165C451.941 223.37 452.328 223.685 452.655 224.11C452.981 224.53 453.238 225.062 453.425 225.706C453.616 226.35 453.712 227.111 453.712 227.988ZM452.417 227.988C452.417 227.223 452.351 226.581 452.221 226.063C452.095 225.54 451.922 225.12 451.703 224.803C451.488 224.486 451.238 224.259 450.954 224.124C450.669 223.984 450.373 223.914 450.065 223.914C449.757 223.914 449.46 223.984 449.176 224.124C448.891 224.259 448.641 224.486 448.427 224.803C448.212 225.12 448.039 225.54 447.909 226.063C447.783 226.581 447.72 227.223 447.72 227.988C447.72 228.753 447.783 229.395 447.909 229.913C448.039 230.431 448.212 230.849 448.427 231.166C448.641 231.483 448.891 231.712 449.176 231.852C449.46 231.987 449.757 232.055 450.065 232.055C450.373 232.055 450.669 231.987 450.954 231.852C451.238 231.712 451.488 231.483 451.703 231.166C451.922 230.849 452.095 230.431 452.221 229.913C452.351 229.395 452.417 228.753 452.417 227.988ZM461.833 227.988C461.833 228.865 461.737 229.626 461.546 230.27C461.359 230.909 461.102 231.439 460.776 231.859C460.449 232.279 460.062 232.592 459.614 232.797C459.17 233.002 458.694 233.105 458.186 233.105C457.672 233.105 457.194 233.002 456.751 232.797C456.312 232.592 455.929 232.279 455.603 231.859C455.276 231.439 455.019 230.909 454.833 230.27C454.646 229.626 454.553 228.865 454.553 227.988C454.553 227.111 454.646 226.35 454.833 225.706C455.019 225.062 455.276 224.53 455.603 224.11C455.929 223.685 456.312 223.37 456.751 223.165C457.194 222.96 457.672 222.857 458.186 222.857C458.694 222.857 459.17 222.96 459.614 223.165C460.062 223.37 460.449 223.685 460.776 224.11C461.102 224.53 461.359 225.062 461.546 225.706C461.737 226.35 461.833 227.111 461.833 227.988ZM460.538 227.988C460.538 227.223 460.472 226.581 460.342 226.063C460.216 225.54 460.043 225.12 459.824 224.803C459.609 224.486 459.359 224.259 459.075 224.124C458.79 223.984 458.494 223.914 458.186 223.914C457.878 223.914 457.581 223.984 457.297 224.124C457.012 224.259 456.762 224.486 456.548 224.803C456.333 225.12 456.16 225.54 456.03 226.063C455.904 226.581 455.841 227.223 455.841 227.988C455.841 228.753 455.904 229.395 456.03 229.913C456.16 230.431 456.333 230.849 456.548 231.166C456.762 231.483 457.012 231.712 457.297 231.852C457.581 231.987 457.878 232.055 458.186 232.055C458.494 232.055 458.79 231.987 459.075 231.852C459.359 231.712 459.609 231.483 459.824 231.166C460.043 230.849 460.216 230.431 460.342 229.913C460.472 229.395 460.538 228.753 460.538 227.988ZM463.031 232.23C463.031 232.109 463.052 231.994 463.094 231.887C463.141 231.78 463.201 231.686 463.276 231.607C463.355 231.528 463.449 231.465 463.556 231.418C463.663 231.371 463.778 231.348 463.899 231.348C464.02 231.348 464.135 231.371 464.242 231.418C464.349 231.465 464.443 231.528 464.522 231.607C464.601 231.686 464.664 231.78 464.711 231.887C464.758 231.994 464.781 232.109 464.781 232.23C464.781 232.356 464.758 232.473 464.711 232.58C464.664 232.683 464.601 232.774 464.522 232.853C464.443 232.932 464.349 232.993 464.242 233.035C464.135 233.082 464.02 233.105 463.899 233.105C463.778 233.105 463.663 233.082 463.556 233.035C463.449 232.993 463.355 232.932 463.276 232.853C463.201 232.774 463.141 232.683 463.094 232.58C463.052 232.473 463.031 232.356 463.031 232.23ZM473.262 227.988C473.262 228.865 473.167 229.626 472.975 230.27C472.789 230.909 472.532 231.439 472.205 231.859C471.879 232.279 471.491 232.592 471.043 232.797C470.6 233.002 470.124 233.105 469.615 233.105C469.102 233.105 468.624 233.002 468.18 232.797C467.742 232.592 467.359 232.279 467.032 231.859C466.706 231.439 466.449 230.909 466.262 230.27C466.076 229.626 465.982 228.865 465.982 227.988C465.982 227.111 466.076 226.35 466.262 225.706C466.449 225.062 466.706 224.53 467.032 224.11C467.359 223.685 467.742 223.37 468.18 223.165C468.624 222.96 469.102 222.857 469.615 222.857C470.124 222.857 470.6 222.96 471.043 223.165C471.491 223.37 471.879 223.685 472.205 224.11C472.532 224.53 472.789 225.062 472.975 225.706C473.167 226.35 473.262 227.111 473.262 227.988ZM471.967 227.988C471.967 227.223 471.902 226.581 471.771 226.063C471.645 225.54 471.473 225.12 471.253 224.803C471.039 224.486 470.789 224.259 470.504 224.124C470.22 223.984 469.923 223.914 469.615 223.914C469.307 223.914 469.011 223.984 468.726 224.124C468.442 224.259 468.192 224.486 467.977 224.803C467.763 225.12 467.59 225.54 467.459 226.063C467.333 226.581 467.27 227.223 467.27 227.988C467.27 228.753 467.333 229.395 467.459 229.913C467.59 230.431 467.763 230.849 467.977 231.166C468.192 231.483 468.442 231.712 468.726 231.852C469.011 231.987 469.307 232.055 469.615 232.055C469.923 232.055 470.22 231.987 470.504 231.852C470.789 231.712 471.039 231.483 471.253 231.166C471.473 230.849 471.645 230.431 471.771 229.913C471.902 229.395 471.967 228.753 471.967 227.988ZM481.384 227.988C481.384 228.865 481.288 229.626 481.097 230.27C480.91 230.909 480.653 231.439 480.327 231.859C480 232.279 479.613 232.592 479.165 232.797C478.721 233.002 478.245 233.105 477.737 233.105C477.223 233.105 476.745 233.002 476.302 232.797C475.863 232.592 475.48 232.279 475.154 231.859C474.827 231.439 474.57 230.909 474.384 230.27C474.197 229.626 474.104 228.865 474.104 227.988C474.104 227.111 474.197 226.35 474.384 225.706C474.57 225.062 474.827 224.53 475.154 224.11C475.48 223.685 475.863 223.37 476.302 223.165C476.745 222.96 477.223 222.857 477.737 222.857C478.245 222.857 478.721 222.96 479.165 223.165C479.613 223.37 480 223.685 480.327 224.11C480.653 224.53 480.91 225.062 481.097 225.706C481.288 226.35 481.384 227.111 481.384 227.988ZM480.089 227.988C480.089 227.223 480.023 226.581 479.893 226.063C479.767 225.54 479.594 225.12 479.375 224.803C479.16 224.486 478.91 224.259 478.626 224.124C478.341 223.984 478.045 223.914 477.737 223.914C477.429 223.914 477.132 223.984 476.848 224.124C476.563 224.259 476.313 224.486 476.099 224.803C475.884 225.12 475.711 225.54 475.581 226.063C475.455 226.581 475.392 227.223 475.392 227.988C475.392 228.753 475.455 229.395 475.581 229.913C475.711 230.431 475.884 230.849 476.099 231.166C476.313 231.483 476.563 231.712 476.848 231.852C477.132 231.987 477.429 232.055 477.737 232.055C478.045 232.055 478.341 231.987 478.626 231.852C478.91 231.712 479.16 231.483 479.375 231.166C479.594 230.849 479.767 230.431 479.893 229.913C480.023 229.395 480.089 228.753 480.089 227.988Z" fill="#878787"/>
<path d="M554.59 227.988C554.59 228.865 554.494 229.626 554.303 230.27C554.116 230.909 553.86 231.439 553.533 231.859C553.206 232.279 552.819 232.592 552.371 232.797C551.928 233.002 551.452 233.105 550.943 233.105C550.43 233.105 549.951 233.002 549.508 232.797C549.069 232.592 548.687 232.279 548.36 231.859C548.033 231.439 547.777 230.909 547.59 230.27C547.403 229.626 547.31 228.865 547.31 227.988C547.31 227.111 547.403 226.35 547.59 225.706C547.777 225.062 548.033 224.53 548.36 224.11C548.687 223.685 549.069 223.37 549.508 223.165C549.951 222.96 550.43 222.857 550.943 222.857C551.452 222.857 551.928 222.96 552.371 223.165C552.819 223.37 553.206 223.685 553.533 224.11C553.86 224.53 554.116 225.062 554.303 225.706C554.494 226.35 554.59 227.111 554.59 227.988ZM553.295 227.988C553.295 227.223 553.23 226.581 553.099 226.063C552.973 225.54 552.8 225.12 552.581 224.803C552.366 224.486 552.117 224.259 551.832 224.124C551.547 223.984 551.251 223.914 550.943 223.914C550.635 223.914 550.339 223.984 550.054 224.124C549.769 224.259 549.52 224.486 549.305 224.803C549.09 225.12 548.918 225.54 548.787 226.063C548.661 226.581 548.598 227.223 548.598 227.988C548.598 228.753 548.661 229.395 548.787 229.913C548.918 230.431 549.09 230.849 549.305 231.166C549.52 231.483 549.769 231.712 550.054 231.852C550.339 231.987 550.635 232.055 550.943 232.055C551.251 232.055 551.547 231.987 551.832 231.852C552.117 231.712 552.366 231.483 552.581 231.166C552.8 230.849 552.973 230.431 553.099 229.913C553.23 229.395 553.295 228.753 553.295 227.988ZM562.711 227.988C562.711 228.865 562.616 229.626 562.424 230.27C562.238 230.909 561.981 231.439 561.654 231.859C561.328 232.279 560.94 232.592 560.492 232.797C560.049 233.002 559.573 233.105 559.064 233.105C558.551 233.105 558.073 233.002 557.629 232.797C557.191 232.592 556.808 232.279 556.481 231.859C556.155 231.439 555.898 230.909 555.711 230.27C555.525 229.626 555.431 228.865 555.431 227.988C555.431 227.111 555.525 226.35 555.711 225.706C555.898 225.062 556.155 224.53 556.481 224.11C556.808 223.685 557.191 223.37 557.629 223.165C558.073 222.96 558.551 222.857 559.064 222.857C559.573 222.857 560.049 222.96 560.492 223.165C560.94 223.37 561.328 223.685 561.654 224.11C561.981 224.53 562.238 225.062 562.424 225.706C562.616 226.35 562.711 227.111 562.711 227.988ZM561.416 227.988C561.416 227.223 561.351 226.581 561.22 226.063C561.094 225.54 560.922 225.12 560.702 224.803C560.488 224.486 560.238 224.259 559.953 224.124C559.669 223.984 559.372 223.914 559.064 223.914C558.756 223.914 558.46 223.984 558.175 224.124C557.891 224.259 557.641 224.486 557.426 224.803C557.212 225.12 557.039 225.54 556.908 226.063C556.782 226.581 556.719 227.223 556.719 227.988C556.719 228.753 556.782 229.395 556.908 229.913C557.039 230.431 557.212 230.849 557.426 231.166C557.641 231.483 557.891 231.712 558.175 231.852C558.46 231.987 558.756 232.055 559.064 232.055C559.372 232.055 559.669 231.987 559.953 231.852C560.238 231.712 560.488 231.483 560.702 231.166C560.922 230.849 561.094 230.431 561.22 229.913C561.351 229.395 561.416 228.753 561.416 227.988ZM563.909 232.23C563.909 232.109 563.93 231.994 563.972 231.887C564.019 231.78 564.08 231.686 564.154 231.607C564.234 231.528 564.327 231.465 564.434 231.418C564.542 231.371 564.656 231.348 564.777 231.348C564.899 231.348 565.013 231.371 565.12 231.418C565.228 231.465 565.321 231.528 565.4 231.607C565.48 231.686 565.543 231.78 565.589 231.887C565.636 231.994 565.659 232.109 565.659 232.23C565.659 232.356 565.636 232.473 565.589 232.58C565.543 232.683 565.48 232.774 565.4 232.853C565.321 232.932 565.228 232.993 565.12 233.035C565.013 233.082 564.899 233.105 564.777 233.105C564.656 233.105 564.542 233.082 564.434 233.035C564.327 232.993 564.234 232.932 564.154 232.853C564.08 232.774 564.019 232.683 563.972 232.58C563.93 232.473 563.909 232.356 563.909 232.23ZM574.141 227.988C574.141 228.865 574.045 229.626 573.854 230.27C573.667 230.909 573.411 231.439 573.084 231.859C572.757 232.279 572.37 232.592 571.922 232.797C571.479 233.002 571.003 233.105 570.494 233.105C569.981 233.105 569.502 233.002 569.059 232.797C568.62 232.592 568.238 232.279 567.911 231.859C567.584 231.439 567.328 230.909 567.141 230.27C566.954 229.626 566.861 228.865 566.861 227.988C566.861 227.111 566.954 226.35 567.141 225.706C567.328 225.062 567.584 224.53 567.911 224.11C568.238 223.685 568.62 223.37 569.059 223.165C569.502 222.96 569.981 222.857 570.494 222.857C571.003 222.857 571.479 222.96 571.922 223.165C572.37 223.37 572.757 223.685 573.084 224.11C573.411 224.53 573.667 225.062 573.854 225.706C574.045 226.35 574.141 227.111 574.141 227.988ZM572.846 227.988C572.846 227.223 572.781 226.581 572.65 226.063C572.524 225.54 572.351 225.12 572.132 224.803C571.917 224.486 571.668 224.259 571.383 224.124C571.098 223.984 570.802 223.914 570.494 223.914C570.186 223.914 569.89 223.984 569.605 224.124C569.32 224.259 569.071 224.486 568.856 224.803C568.641 225.12 568.469 225.54 568.338 226.063C568.212 226.581 568.149 227.223 568.149 227.988C568.149 228.753 568.212 229.395 568.338 229.913C568.469 230.431 568.641 230.849 568.856 231.166C569.071 231.483 569.32 231.712 569.605 231.852C569.89 231.987 570.186 232.055 570.494 232.055C570.802 232.055 571.098 231.987 571.383 231.852C571.668 231.712 571.917 231.483 572.132 231.166C572.351 230.849 572.524 230.431 572.65 229.913C572.781 229.395 572.846 228.753 572.846 227.988ZM582.262 227.988C582.262 228.865 582.166 229.626 581.975 230.27C581.788 230.909 581.532 231.439 581.205 231.859C580.878 232.279 580.491 232.592 580.043 232.797C579.6 233.002 579.124 233.105 578.615 233.105C578.102 233.105 577.623 233.002 577.18 232.797C576.741 232.592 576.359 232.279 576.032 231.859C575.705 231.439 575.449 230.909 575.262 230.27C575.075 229.626 574.982 228.865 574.982 227.988C574.982 227.111 575.075 226.35 575.262 225.706C575.449 225.062 575.705 224.53 576.032 224.11C576.359 223.685 576.741 223.37 577.18 223.165C577.623 222.96 578.102 222.857 578.615 222.857C579.124 222.857 579.6 222.96 580.043 223.165C580.491 223.37 580.878 223.685 581.205 224.11C581.532 224.53 581.788 225.062 581.975 225.706C582.166 226.35 582.262 227.111 582.262 227.988ZM580.967 227.988C580.967 227.223 580.902 226.581 580.771 226.063C580.645 225.54 580.472 225.12 580.253 224.803C580.038 224.486 579.789 224.259 579.504 224.124C579.219 223.984 578.923 223.914 578.615 223.914C578.307 223.914 578.011 223.984 577.726 224.124C577.441 224.259 577.192 224.486 576.977 224.803C576.762 225.12 576.59 225.54 576.459 226.063C576.333 226.581 576.27 227.223 576.27 227.988C576.27 228.753 576.333 229.395 576.459 229.913C576.59 230.431 576.762 230.849 576.977 231.166C577.192 231.483 577.441 231.712 577.726 231.852C578.011 231.987 578.307 232.055 578.615 232.055C578.923 232.055 579.219 231.987 579.504 231.852C579.789 231.712 580.038 231.483 580.253 231.166C580.472 230.849 580.645 230.431 580.771 229.913C580.902 229.395 580.967 228.753 580.967 227.988Z" fill="#878787"/>
<path d="M654.141 227.988C654.141 228.865 654.046 229.626 653.854 230.27C653.668 230.909 653.411 231.439 653.084 231.859C652.758 232.279 652.37 232.592 651.922 232.797C651.479 233.002 651.003 233.105 650.494 233.105C649.981 233.105 649.503 233.002 649.059 232.797C648.621 232.592 648.238 232.279 647.911 231.859C647.585 231.439 647.328 230.909 647.141 230.27C646.955 229.626 646.861 228.865 646.861 227.988C646.861 227.111 646.955 226.35 647.141 225.706C647.328 225.062 647.585 224.53 647.911 224.11C648.238 223.685 648.621 223.37 649.059 223.165C649.503 222.96 649.981 222.857 650.494 222.857C651.003 222.857 651.479 222.96 651.922 223.165C652.37 223.37 652.758 223.685 653.084 224.11C653.411 224.53 653.668 225.062 653.854 225.706C654.046 226.35 654.141 227.111 654.141 227.988ZM652.846 227.988C652.846 227.223 652.781 226.581 652.65 226.063C652.524 225.54 652.352 225.12 652.132 224.803C651.918 224.486 651.668 224.259 651.383 224.124C651.099 223.984 650.802 223.914 650.494 223.914C650.186 223.914 649.89 223.984 649.605 224.124C649.321 224.259 649.071 224.486 648.856 224.803C648.642 225.12 648.469 225.54 648.338 226.063C648.212 226.581 648.149 227.223 648.149 227.988C648.149 228.753 648.212 229.395 648.338 229.913C648.469 230.431 648.642 230.849 648.856 231.166C649.071 231.483 649.321 231.712 649.605 231.852C649.89 231.987 650.186 232.055 650.494 232.055C650.802 232.055 651.099 231.987 651.383 231.852C651.668 231.712 651.918 231.483 652.132 231.166C652.352 230.849 652.524 230.431 652.65 229.913C652.781 229.395 652.846 228.753 652.846 227.988ZM662.262 227.988C662.262 228.865 662.167 229.626 661.975 230.27C661.789 230.909 661.532 231.439 661.205 231.859C660.879 232.279 660.491 232.592 660.043 232.797C659.6 233.002 659.124 233.105 658.615 233.105C658.102 233.105 657.624 233.002 657.18 232.797C656.742 232.592 656.359 232.279 656.032 231.859C655.706 231.439 655.449 230.909 655.262 230.27C655.076 229.626 654.982 228.865 654.982 227.988C654.982 227.111 655.076 226.35 655.262 225.706C655.449 225.062 655.706 224.53 656.032 224.11C656.359 223.685 656.742 223.37 657.18 223.165C657.624 222.96 658.102 222.857 658.615 222.857C659.124 222.857 659.6 222.96 660.043 223.165C660.491 223.37 660.879 223.685 661.205 224.11C661.532 224.53 661.789 225.062 661.975 225.706C662.167 226.35 662.262 227.111 662.262 227.988ZM660.967 227.988C660.967 227.223 660.902 226.581 660.771 226.063C660.645 225.54 660.473 225.12 660.253 224.803C660.039 224.486 659.789 224.259 659.504 224.124C659.22 223.984 658.923 223.914 658.615 223.914C658.307 223.914 658.011 223.984 657.726 224.124C657.442 224.259 657.192 224.486 656.977 224.803C656.763 225.12 656.59 225.54 656.459 226.063C656.333 226.581 656.27 227.223 656.27 227.988C656.27 228.753 656.333 229.395 656.459 229.913C656.59 230.431 656.763 230.849 656.977 231.166C657.192 231.483 657.442 231.712 657.726 231.852C658.011 231.987 658.307 232.055 658.615 232.055C658.923 232.055 659.22 231.987 659.504 231.852C659.789 231.712 660.039 231.483 660.253 231.166C660.473 230.849 660.645 230.431 660.771 229.913C660.902 229.395 660.967 228.753 660.967 227.988ZM663.46 232.23C663.46 232.109 663.481 231.994 663.523 231.887C663.57 231.78 663.631 231.686 663.705 231.607C663.785 231.528 663.878 231.465 663.985 231.418C664.093 231.371 664.207 231.348 664.328 231.348C664.45 231.348 664.564 231.371 664.671 231.418C664.779 231.465 664.872 231.528 664.951 231.607C665.031 231.686 665.094 231.78 665.14 231.887C665.187 231.994 665.21 232.109 665.21 232.23C665.21 232.356 665.187 232.473 665.14 232.58C665.094 232.683 665.031 232.774 664.951 232.853C664.872 232.932 664.779 232.993 664.671 233.035C664.564 233.082 664.45 233.105 664.328 233.105C664.207 233.105 664.093 233.082 663.985 233.035C663.878 232.993 663.785 232.932 663.705 232.853C663.631 232.774 663.57 232.683 663.523 232.58C663.481 232.473 663.46 232.356 663.46 232.23ZM673.692 227.988C673.692 228.865 673.596 229.626 673.405 230.27C673.218 230.909 672.962 231.439 672.635 231.859C672.308 232.279 671.921 232.592 671.473 232.797C671.03 233.002 670.554 233.105 670.045 233.105C669.532 233.105 669.053 233.002 668.61 232.797C668.171 232.592 667.789 232.279 667.462 231.859C667.135 231.439 666.879 230.909 666.692 230.27C666.505 229.626 666.412 228.865 666.412 227.988C666.412 227.111 666.505 226.35 666.692 225.706C666.879 225.062 667.135 224.53 667.462 224.11C667.789 223.685 668.171 223.37 668.61 223.165C669.053 222.96 669.532 222.857 670.045 222.857C670.554 222.857 671.03 222.96 671.473 223.165C671.921 223.37 672.308 223.685 672.635 224.11C672.962 224.53 673.218 225.062 673.405 225.706C673.596 226.35 673.692 227.111 673.692 227.988ZM672.397 227.988C672.397 227.223 672.332 226.581 672.201 226.063C672.075 225.54 671.902 225.12 671.683 224.803C671.468 224.486 671.219 224.259 670.934 224.124C670.649 223.984 670.353 223.914 670.045 223.914C669.737 223.914 669.441 223.984 669.156 224.124C668.871 224.259 668.622 224.486 668.407 224.803C668.192 225.12 668.02 225.54 667.889 226.063C667.763 226.581 667.7 227.223 667.7 227.988C667.7 228.753 667.763 229.395 667.889 229.913C668.02 230.431 668.192 230.849 668.407 231.166C668.622 231.483 668.871 231.712 669.156 231.852C669.441 231.987 669.737 232.055 670.045 232.055C670.353 232.055 670.649 231.987 670.934 231.852C671.219 231.712 671.468 231.483 671.683 231.166C671.902 230.849 672.075 230.431 672.201 229.913C672.332 229.395 672.397 228.753 672.397 227.988ZM681.813 227.988C681.813 228.865 681.717 229.626 681.526 230.27C681.339 230.909 681.083 231.439 680.756 231.859C680.429 232.279 680.042 232.592 679.594 232.797C679.151 233.002 678.675 233.105 678.166 233.105C677.653 233.105 677.174 233.002 676.731 232.797C676.292 232.592 675.91 232.279 675.583 231.859C675.256 231.439 675 230.909 674.813 230.27C674.626 229.626 674.533 228.865 674.533 227.988C674.533 227.111 674.626 226.35 674.813 225.706C675 225.062 675.256 224.53 675.583 224.11C675.91 223.685 676.292 223.37 676.731 223.165C677.174 222.96 677.653 222.857 678.166 222.857C678.675 222.857 679.151 222.96 679.594 223.165C680.042 223.37 680.429 223.685 680.756 224.11C681.083 224.53 681.339 225.062 681.526 225.706C681.717 226.35 681.813 227.111 681.813 227.988ZM680.518 227.988C680.518 227.223 680.453 226.581 680.322 226.063C680.196 225.54 680.023 225.12 679.804 224.803C679.589 224.486 679.34 224.259 679.055 224.124C678.77 223.984 678.474 223.914 678.166 223.914C677.858 223.914 677.562 223.984 677.277 224.124C676.992 224.259 676.743 224.486 676.528 224.803C676.313 225.12 676.141 225.54 676.01 226.063C675.884 226.581 675.821 227.223 675.821 227.988C675.821 228.753 675.884 229.395 676.01 229.913C676.141 230.431 676.313 230.849 676.528 231.166C676.743 231.483 676.992 231.712 677.277 231.852C677.562 231.987 677.858 232.055 678.166 232.055C678.474 232.055 678.77 231.987 679.055 231.852C679.34 231.712 679.589 231.483 679.804 231.166C680.023 230.849 680.196 230.431 680.322 229.913C680.453 229.395 680.518 228.753 680.518 227.988Z" fill="#878787"/>
<path d="M57.3631 172.076C57.6991 172.076 58.0024 172.022 58.2731 171.915C58.5484 171.808 58.7817 171.658 58.9731 171.467C59.1691 171.276 59.3184 171.049 59.4211 170.788C59.5284 170.527 59.5821 170.242 59.5821 169.934C59.5821 169.607 59.5307 169.313 59.4281 169.052C59.3254 168.786 59.1784 168.562 58.9871 168.38C58.8004 168.193 58.5764 168.051 58.3151 167.953C58.0537 167.855 57.7667 167.806 57.4541 167.806C57.1181 167.806 56.8147 167.864 56.5441 167.981C56.2734 168.093 56.0424 168.247 55.8511 168.443C55.6644 168.634 55.5197 168.858 55.4171 169.115C55.3191 169.367 55.2701 169.631 55.2701 169.906C55.2701 170.228 55.3167 170.522 55.4101 170.788C55.5034 171.054 55.6387 171.283 55.8161 171.474C55.9981 171.665 56.2174 171.815 56.4741 171.922C56.7354 172.025 57.0317 172.076 57.3631 172.076ZM56.6351 166.728C56.5464 166.84 56.4601 166.95 56.3761 167.057C56.2967 167.16 56.2197 167.262 56.1451 167.365C56.3831 167.202 56.6444 167.076 56.9291 166.987C57.2137 166.898 57.5241 166.854 57.8601 166.854C58.2661 166.854 58.6487 166.922 59.0081 167.057C59.3674 167.188 59.6801 167.381 59.9461 167.638C60.2167 167.89 60.4314 168.203 60.5901 168.576C60.7487 168.945 60.8281 169.367 60.8281 169.843C60.8281 170.305 60.7441 170.734 60.5761 171.131C60.4081 171.528 60.1724 171.873 59.8691 172.167C59.5704 172.461 59.2087 172.692 58.7841 172.86C58.3641 173.028 57.8997 173.112 57.3911 173.112C56.8871 173.112 56.4297 173.033 56.0191 172.874C55.6084 172.711 55.2584 172.482 54.9691 172.188C54.6844 171.889 54.4627 171.53 54.3041 171.11C54.1501 170.685 54.0731 170.212 54.0731 169.689C54.0731 169.25 54.1687 168.784 54.3601 168.289C54.5561 167.79 54.8664 167.258 55.2911 166.693L57.8391 163.27C57.9044 163.186 57.9931 163.116 58.1051 163.06C58.2217 162.999 58.3547 162.969 58.5041 162.969H59.6101L56.6351 166.728ZM69.1382 167.988C69.1382 168.865 69.0425 169.626 68.8512 170.27C68.6645 170.909 68.4078 171.439 68.0812 171.859C67.7545 172.279 67.3672 172.592 66.9192 172.797C66.4758 173.002 65.9998 173.105 65.4912 173.105C64.9778 173.105 64.4995 173.002 64.0562 172.797C63.6175 172.592 63.2348 172.279 62.9082 171.859C62.5815 171.439 62.3248 170.909 62.1382 170.27C61.9515 169.626 61.8582 168.865 61.8582 167.988C61.8582 167.111 61.9515 166.35 62.1382 165.706C62.3248 165.062 62.5815 164.53 62.9082 164.11C63.2348 163.685 63.6175 163.37 64.0562 163.165C64.4995 162.96 64.9778 162.857 65.4912 162.857C65.9998 162.857 66.4758 162.96 66.9192 163.165C67.3672 163.37 67.7545 163.685 68.0812 164.11C68.4078 164.53 68.6645 165.062 68.8512 165.706C69.0425 166.35 69.1382 167.111 69.1382 167.988ZM67.8432 167.988C67.8432 167.223 67.7778 166.581 67.6472 166.063C67.5212 165.54 67.3485 165.12 67.1292 164.803C66.9145 164.486 66.6648 164.259 66.3802 164.124C66.0955 163.984 65.7992 163.914 65.4912 163.914C65.1832 163.914 64.8868 163.984 64.6022 164.124C64.3175 164.259 64.0678 164.486 63.8532 164.803C63.6385 165.12 63.4658 165.54 63.3352 166.063C63.2092 166.581 63.1462 167.223 63.1462 167.988C63.1462 168.753 63.2092 169.395 63.3352 169.913C63.4658 170.431 63.6385 170.849 63.8532 171.166C64.0678 171.483 64.3175 171.712 64.6022 171.852C64.8868 171.987 65.1832 172.055 65.4912 172.055C65.7992 172.055 66.0955 171.987 66.3802 171.852C66.6648 171.712 66.9145 171.483 67.1292 171.166C67.3485 170.849 67.5212 170.431 67.6472 169.913C67.7778 169.395 67.8432 168.753 67.8432 167.988ZM77.2593 167.988C77.2593 168.865 77.1636 169.626 76.9723 170.27C76.7856 170.909 76.5289 171.439 76.2023 171.859C75.8756 172.279 75.4883 172.592 75.0403 172.797C74.5969 173.002 74.1209 173.105 73.6123 173.105C73.0989 173.105 72.6206 173.002 72.1773 172.797C71.7386 172.592 71.3559 172.279 71.0293 171.859C70.7026 171.439 70.4459 170.909 70.2593 170.27C70.0726 169.626 69.9793 168.865 69.9793 167.988C69.9793 167.111 70.0726 166.35 70.2593 165.706C70.4459 165.062 70.7026 164.53 71.0293 164.11C71.3559 163.685 71.7386 163.37 72.1773 163.165C72.6206 162.96 73.0989 162.857 73.6123 162.857C74.1209 162.857 74.5969 162.96 75.0403 163.165C75.4883 163.37 75.8756 163.685 76.2023 164.11C76.5289 164.53 76.7856 165.062 76.9723 165.706C77.1636 166.35 77.2593 167.111 77.2593 167.988ZM75.9643 167.988C75.9643 167.223 75.8989 166.581 75.7683 166.063C75.6423 165.54 75.4696 165.12 75.2503 164.803C75.0356 164.486 74.7859 164.259 74.5013 164.124C74.2166 163.984 73.9203 163.914 73.6123 163.914C73.3043 163.914 73.0079 163.984 72.7233 164.124C72.4386 164.259 72.1889 164.486 71.9743 164.803C71.7596 165.12 71.5869 165.54 71.4563 166.063C71.3303 166.581 71.2673 167.223 71.2673 167.988C71.2673 168.753 71.3303 169.395 71.4563 169.913C71.5869 170.431 71.7596 170.849 71.9743 171.166C72.1889 171.483 72.4386 171.712 72.7233 171.852C73.0079 171.987 73.3043 172.055 73.6123 172.055C73.9203 172.055 74.2166 171.987 74.5013 171.852C74.7859 171.712 75.0356 171.483 75.2503 171.166C75.4696 170.849 75.6423 170.431 75.7683 169.913C75.8989 169.395 75.9643 168.753 75.9643 167.988Z" fill="#878787"/>
<path d="M49.4242 132.048V133H44.0482V132.048H46.1972V125.209C46.1972 125.004 46.2042 124.796 46.2182 124.586L44.4332 126.119C44.3725 126.17 44.3118 126.203 44.2512 126.217C44.1905 126.226 44.1345 126.226 44.0832 126.217C44.0318 126.208 43.9828 126.189 43.9362 126.161C43.8942 126.133 43.8615 126.103 43.8382 126.07L43.4462 125.531L46.4352 122.948H47.4502V132.048H49.4242ZM57.3283 131.817C57.4636 131.817 57.5709 131.857 57.6503 131.936C57.7296 132.015 57.7693 132.118 57.7693 132.244V133H51.0773V132.573C51.0773 132.484 51.0959 132.393 51.1333 132.3C51.1706 132.207 51.2289 132.12 51.3083 132.041L54.5213 128.814C54.7873 128.543 55.0299 128.284 55.2493 128.037C55.4686 127.785 55.6553 127.533 55.8093 127.281C55.9633 127.029 56.0823 126.775 56.1663 126.518C56.2503 126.257 56.2923 125.979 56.2923 125.685C56.2923 125.391 56.2456 125.134 56.1523 124.915C56.0589 124.691 55.9306 124.507 55.7673 124.362C55.6086 124.217 55.4196 124.11 55.2003 124.04C54.9809 123.965 54.7453 123.928 54.4933 123.928C54.2366 123.928 54.0009 123.965 53.7863 124.04C53.5716 124.115 53.3803 124.22 53.2123 124.355C53.0489 124.486 52.9113 124.642 52.7993 124.824C52.6873 125.006 52.6079 125.207 52.5613 125.426C52.5053 125.589 52.4283 125.699 52.3303 125.755C52.2369 125.806 52.1039 125.82 51.9313 125.797L51.2803 125.685C51.3456 125.228 51.4716 124.824 51.6583 124.474C51.8496 124.119 52.0876 123.823 52.3723 123.585C52.6616 123.347 52.9906 123.167 53.3593 123.046C53.7279 122.92 54.1269 122.857 54.5563 122.857C54.9809 122.857 55.3776 122.92 55.7463 123.046C56.1149 123.172 56.4346 123.356 56.7053 123.599C56.9759 123.837 57.1883 124.129 57.3423 124.474C57.4963 124.819 57.5733 125.211 57.5733 125.65C57.5733 126.023 57.5173 126.371 57.4053 126.693C57.2933 127.01 57.1416 127.314 56.9503 127.603C56.7589 127.892 56.5373 128.175 56.2853 128.45C56.0379 128.725 55.7743 129.003 55.4943 129.283L52.8483 131.985C53.0349 131.934 53.2239 131.894 53.4153 131.866C53.6066 131.833 53.7909 131.817 53.9683 131.817H57.3283ZM66.2403 127.988C66.2403 128.865 66.1447 129.626 65.9533 130.27C65.7667 130.909 65.51 131.439 65.1833 131.859C64.8567 132.279 64.4693 132.592 64.0213 132.797C63.578 133.002 63.102 133.105 62.5933 133.105C62.08 133.105 61.6017 133.002 61.1583 132.797C60.7197 132.592 60.337 132.279 60.0103 131.859C59.6837 131.439 59.427 130.909 59.2403 130.27C59.0537 129.626 58.9603 128.865 58.9603 127.988C58.9603 127.111 59.0537 126.35 59.2403 125.706C59.427 125.062 59.6837 124.53 60.0103 124.11C60.337 123.685 60.7197 123.37 61.1583 123.165C61.6017 122.96 62.08 122.857 62.5933 122.857C63.102 122.857 63.578 122.96 64.0213 123.165C64.4693 123.37 64.8567 123.685 65.1833 124.11C65.51 124.53 65.7667 125.062 65.9533 125.706C66.1447 126.35 66.2403 127.111 66.2403 127.988ZM64.9453 127.988C64.9453 127.223 64.88 126.581 64.7493 126.063C64.6233 125.54 64.4507 125.12 64.2313 124.803C64.0167 124.486 63.767 124.259 63.4823 124.124C63.1977 123.984 62.9013 123.914 62.5933 123.914C62.2853 123.914 61.989 123.984 61.7043 124.124C61.4197 124.259 61.17 124.486 60.9553 124.803C60.7407 125.12 60.568 125.54 60.4373 126.063C60.3113 126.581 60.2483 127.223 60.2483 127.988C60.2483 128.753 60.3113 129.395 60.4373 129.913C60.568 130.431 60.7407 130.849 60.9553 131.166C61.17 131.483 61.4197 131.712 61.7043 131.852C61.989 131.987 62.2853 132.055 62.5933 132.055C62.9013 132.055 63.1977 131.987 63.4823 131.852C63.767 131.712 64.0167 131.483 64.2313 131.166C64.4507 130.849 64.6233 130.431 64.7493 129.913C64.88 129.395 64.9453 128.753 64.9453 127.988ZM74.3614 127.988C74.3614 128.865 74.2658 129.626 74.0744 130.27C73.8878 130.909 73.6311 131.439 73.3044 131.859C72.9778 132.279 72.5904 132.592 72.1424 132.797C71.6991 133.002 71.2231 133.105 70.7144 133.105C70.2011 133.105 69.7228 133.002 69.2794 132.797C68.8408 132.592 68.4581 132.279 68.1314 131.859C67.8048 131.439 67.5481 130.909 67.3614 130.27C67.1748 129.626 67.0814 128.865 67.0814 127.988C67.0814 127.111 67.1748 126.35 67.3614 125.706C67.5481 125.062 67.8048 124.53 68.1314 124.11C68.4581 123.685 68.8408 123.37 69.2794 123.165C69.7228 122.96 70.2011 122.857 70.7144 122.857C71.2231 122.857 71.6991 122.96 72.1424 123.165C72.5904 123.37 72.9778 123.685 73.3044 124.11C73.6311 124.53 73.8878 125.062 74.0744 125.706C74.2658 126.35 74.3614 127.111 74.3614 127.988ZM73.0664 127.988C73.0664 127.223 73.0011 126.581 72.8704 126.063C72.7444 125.54 72.5718 125.12 72.3524 124.803C72.1378 124.486 71.8881 124.259 71.6034 124.124C71.3188 123.984 71.0224 123.914 70.7144 123.914C70.4064 123.914 70.1101 123.984 69.8254 124.124C69.5408 124.259 69.2911 124.486 69.0764 124.803C68.8618 125.12 68.6891 125.54 68.5584 126.063C68.4324 126.581 68.3694 127.223 68.3694 127.988C68.3694 128.753 68.4324 129.395 68.5584 129.913C68.6891 130.431 68.8618 130.849 69.0764 131.166C69.2911 131.483 69.5408 131.712 69.8254 131.852C70.1101 131.987 70.4064 132.055 70.7144 132.055C71.0224 132.055 71.3188 131.987 71.6034 131.852C71.8881 131.712 72.1378 131.483 72.3524 131.166C72.5718 130.849 72.7444 130.431 72.8704 129.913C73.0011 129.395 73.0664 128.753 73.0664 127.988Z" fill="#878787"/>
<path d="M49.4242 92.048V93H44.0482V92.048H46.1972V85.209C46.1972 85.0037 46.2042 84.796 46.2182 84.586L44.4332 86.119C44.3725 86.1703 44.3118 86.203 44.2512 86.217C44.1905 86.2263 44.1345 86.2263 44.0832 86.217C44.0318 86.2077 43.9828 86.189 43.9362 86.161C43.8942 86.133 43.8615 86.1027 43.8382 86.07L43.4462 85.531L46.4352 82.948H47.4502V92.048H49.4242ZM54.4793 92.118C54.8059 92.118 55.0976 92.0737 55.3543 91.985C55.6156 91.8917 55.8349 91.7633 56.0123 91.6C56.1943 91.432 56.3319 91.2337 56.4253 91.005C56.5233 90.7717 56.5723 90.515 56.5723 90.235C56.5723 89.8897 56.5139 89.5957 56.3973 89.353C56.2853 89.1057 56.1313 88.905 55.9353 88.751C55.7439 88.597 55.5223 88.485 55.2703 88.415C55.0183 88.3403 54.7546 88.303 54.4793 88.303C54.2039 88.303 53.9403 88.3403 53.6883 88.415C53.4363 88.485 53.2123 88.597 53.0163 88.751C52.8249 88.905 52.6709 89.1057 52.5543 89.353C52.4423 89.5957 52.3863 89.8897 52.3863 90.235C52.3863 90.515 52.4329 90.7717 52.5263 91.005C52.6243 91.2337 52.7619 91.432 52.9393 91.6C53.1213 91.7633 53.3406 91.8917 53.5973 91.985C53.8586 92.0737 54.1526 92.118 54.4793 92.118ZM54.4793 83.823C54.1806 83.823 53.9169 83.8673 53.6883 83.956C53.4643 84.0447 53.2753 84.166 53.1213 84.32C52.9719 84.474 52.8576 84.6537 52.7783 84.859C52.7036 85.0643 52.6663 85.2837 52.6663 85.517C52.6663 85.7457 52.6989 85.9673 52.7643 86.182C52.8296 86.3967 52.9346 86.588 53.0793 86.756C53.2239 86.9193 53.4106 87.0523 53.6393 87.155C53.8726 87.253 54.1526 87.302 54.4793 87.302C54.8059 87.302 55.0836 87.253 55.3123 87.155C55.5456 87.0523 55.7346 86.9193 55.8793 86.756C56.0239 86.588 56.1289 86.3967 56.1943 86.182C56.2596 85.9673 56.2923 85.7457 56.2923 85.517C56.2923 85.2837 56.2526 85.0643 56.1733 84.859C56.0986 84.6537 55.9843 84.474 55.8303 84.32C55.6809 84.166 55.4919 84.0447 55.2633 83.956C55.0393 83.8673 54.7779 83.823 54.4793 83.823ZM55.9143 87.771C56.5396 87.9483 57.0203 88.2447 57.3563 88.66C57.6923 89.0753 57.8603 89.6073 57.8603 90.256C57.8603 90.6947 57.7763 91.0913 57.6083 91.446C57.4449 91.796 57.2139 92.0947 56.9153 92.342C56.6213 92.5893 56.2666 92.7807 55.8513 92.916C55.4359 93.0467 54.9786 93.112 54.4793 93.112C53.9799 93.112 53.5226 93.0467 53.1073 92.916C52.6919 92.7807 52.3349 92.5893 52.0363 92.342C51.7376 92.0947 51.5066 91.796 51.3433 91.446C51.1799 91.0913 51.0983 90.6947 51.0983 90.256C51.0983 89.6073 51.2663 89.0753 51.6023 88.66C51.9383 88.2447 52.4189 87.9483 53.0443 87.771C52.5169 87.575 52.1179 87.2833 51.8473 86.896C51.5813 86.504 51.4483 86.0373 51.4483 85.496C51.4483 85.1273 51.5206 84.782 51.6653 84.46C51.8099 84.138 52.0153 83.858 52.2813 83.62C52.5473 83.382 52.8646 83.1953 53.2333 83.06C53.6066 82.9247 54.0219 82.857 54.4793 82.857C54.9319 82.857 55.3449 82.9247 55.7183 83.06C56.0916 83.1953 56.4113 83.382 56.6773 83.62C56.9433 83.858 57.1486 84.138 57.2933 84.46C57.4379 84.782 57.5103 85.1273 57.5103 85.496C57.5103 86.0373 57.3749 86.504 57.1043 86.896C56.8383 87.2833 56.4416 87.575 55.9143 87.771ZM66.2403 87.988C66.2403 88.8653 66.1447 89.626 65.9533 90.27C65.7667 90.9093 65.51 91.439 65.1833 91.859C64.8567 92.279 64.4693 92.5917 64.0213 92.797C63.578 93.0023 63.102 93.105 62.5933 93.105C62.08 93.105 61.6017 93.0023 61.1583 92.797C60.7197 92.5917 60.337 92.279 60.0103 91.859C59.6837 91.439 59.427 90.9093 59.2403 90.27C59.0537 89.626 58.9603 88.8653 58.9603 87.988C58.9603 87.1107 59.0537 86.35 59.2403 85.706C59.427 85.062 59.6837 84.53 60.0103 84.11C60.337 83.6853 60.7197 83.3703 61.1583 83.165C61.6017 82.9597 62.08 82.857 62.5933 82.857C63.102 82.857 63.578 82.9597 64.0213 83.165C64.4693 83.3703 64.8567 83.6853 65.1833 84.11C65.51 84.53 65.7667 85.062 65.9533 85.706C66.1447 86.35 66.2403 87.1107 66.2403 87.988ZM64.9453 87.988C64.9453 87.2227 64.88 86.581 64.7493 86.063C64.6233 85.5403 64.4507 85.1203 64.2313 84.803C64.0167 84.4857 63.767 84.2593 63.4823 84.124C63.1977 83.984 62.9013 83.914 62.5933 83.914C62.2853 83.914 61.989 83.984 61.7043 84.124C61.4197 84.2593 61.17 84.4857 60.9553 84.803C60.7407 85.1203 60.568 85.5403 60.4373 86.063C60.3113 86.581 60.2483 87.2227 60.2483 87.988C60.2483 88.7533 60.3113 89.395 60.4373 89.913C60.568 90.431 60.7407 90.8487 60.9553 91.166C61.17 91.4833 61.4197 91.712 61.7043 91.852C61.989 91.9873 62.2853 92.055 62.5933 92.055C62.9013 92.055 63.1977 91.9873 63.4823 91.852C63.767 91.712 64.0167 91.4833 64.2313 91.166C64.4507 90.8487 64.6233 90.431 64.7493 89.913C64.88 89.395 64.9453 88.7533 64.9453 87.988ZM74.3614 87.988C74.3614 88.8653 74.2658 89.626 74.0744 90.27C73.8878 90.9093 73.6311 91.439 73.3044 91.859C72.9778 92.279 72.5904 92.5917 72.1424 92.797C71.6991 93.0023 71.2231 93.105 70.7144 93.105C70.2011 93.105 69.7228 93.0023 69.2794 92.797C68.8408 92.5917 68.4581 92.279 68.1314 91.859C67.8048 91.439 67.5481 90.9093 67.3614 90.27C67.1748 89.626 67.0814 88.8653 67.0814 87.988C67.0814 87.1107 67.1748 86.35 67.3614 85.706C67.5481 85.062 67.8048 84.53 68.1314 84.11C68.4581 83.6853 68.8408 83.3703 69.2794 83.165C69.7228 82.9597 70.2011 82.857 70.7144 82.857C71.2231 82.857 71.6991 82.9597 72.1424 83.165C72.5904 83.3703 72.9778 83.6853 73.3044 84.11C73.6311 84.53 73.8878 85.062 74.0744 85.706C74.2658 86.35 74.3614 87.1107 74.3614 87.988ZM73.0664 87.988C73.0664 87.2227 73.0011 86.581 72.8704 86.063C72.7444 85.5403 72.5718 85.1203 72.3524 84.803C72.1378 84.4857 71.8881 84.2593 71.6034 84.124C71.3188 83.984 71.0224 83.914 70.7144 83.914C70.4064 83.914 70.1101 83.984 69.8254 84.124C69.5408 84.2593 69.2911 84.4857 69.0764 84.803C68.8618 85.1203 68.6891 85.5403 68.5584 86.063C68.4324 86.581 68.3694 87.2227 68.3694 87.988C68.3694 88.7533 68.4324 89.395 68.5584 89.913C68.6891 90.431 68.8618 90.8487 69.0764 91.166C69.2911 91.4833 69.5408 91.712 69.8254 91.852C70.1101 91.9873 70.4064 92.055 70.7144 92.055C71.0224 92.055 71.3188 91.9873 71.6034 91.852C71.8881 91.712 72.1378 91.4833 72.3524 91.166C72.5718 90.8487 72.7444 90.431 72.8704 89.913C73.0011 89.395 73.0664 88.7533 73.0664 87.988Z" fill="#878787"/>
<path d="M49.2072 52.817C49.3425 52.817 49.4498 52.8567 49.5292 52.936C49.6085 53.0153 49.6482 53.118 49.6482 53.244V54H42.9562V53.573C42.9562 53.4843 42.9748 53.3933 43.0122 53.3C43.0495 53.2067 43.1078 53.1203 43.1872 53.041L46.4002 49.814C46.6662 49.5433 46.9088 49.2843 47.1282 49.037C47.3475 48.785 47.5342 48.533 47.6882 48.281C47.8422 48.029 47.9612 47.7747 48.0452 47.518C48.1292 47.2567 48.1712 46.979 48.1712 46.685C48.1712 46.391 48.1245 46.1343 48.0312 45.915C47.9378 45.691 47.8095 45.5067 47.6462 45.362C47.4875 45.2173 47.2985 45.11 47.0792 45.04C46.8598 44.9653 46.6242 44.928 46.3722 44.928C46.1155 44.928 45.8798 44.9653 45.6652 45.04C45.4505 45.1147 45.2592 45.2197 45.0912 45.355C44.9278 45.4857 44.7902 45.642 44.6782 45.824C44.5662 46.006 44.4868 46.2067 44.4402 46.426C44.3842 46.5893 44.3072 46.699 44.2092 46.755C44.1158 46.8063 43.9828 46.8203 43.8102 46.797L43.1592 46.685C43.2245 46.2277 43.3505 45.824 43.5372 45.474C43.7285 45.1193 43.9665 44.823 44.2512 44.585C44.5405 44.347 44.8695 44.1673 45.2382 44.046C45.6068 43.92 46.0058 43.857 46.4352 43.857C46.8598 43.857 47.2565 43.92 47.6252 44.046C47.9938 44.172 48.3135 44.3563 48.5842 44.599C48.8548 44.837 49.0672 45.1287 49.2212 45.474C49.3752 45.8193 49.4522 46.2113 49.4522 46.65C49.4522 47.0233 49.3962 47.371 49.2842 47.693C49.1722 48.0103 49.0205 48.3137 48.8292 48.603C48.6378 48.8923 48.4162 49.1747 48.1642 49.45C47.9168 49.7253 47.6532 50.003 47.3732 50.283L44.7272 52.985C44.9138 52.9337 45.1028 52.894 45.2942 52.866C45.4855 52.8333 45.6698 52.817 45.8472 52.817H49.2072ZM55.5293 50.381V46.244C55.5293 46.1227 55.5339 45.9897 55.5433 45.845C55.5526 45.7003 55.5666 45.5533 55.5853 45.404L51.9313 50.381H55.5293ZM58.1403 50.381V51.095C58.1403 51.1697 58.1169 51.2327 58.0703 51.284C58.0283 51.3353 57.9606 51.361 57.8673 51.361H56.6213V54H55.5293V51.361H51.0773C50.9839 51.361 50.9023 51.3353 50.8323 51.284C50.7669 51.228 50.7249 51.1603 50.7063 51.081L50.5803 50.444L55.4593 43.969H56.6213V50.381H58.1403ZM66.2403 48.988C66.2403 49.8653 66.1447 50.626 65.9533 51.27C65.7667 51.9093 65.51 52.439 65.1833 52.859C64.8567 53.279 64.4693 53.5917 64.0213 53.797C63.578 54.0023 63.102 54.105 62.5933 54.105C62.08 54.105 61.6017 54.0023 61.1583 53.797C60.7197 53.5917 60.337 53.279 60.0103 52.859C59.6837 52.439 59.427 51.9093 59.2403 51.27C59.0537 50.626 58.9603 49.8653 58.9603 48.988C58.9603 48.1107 59.0537 47.35 59.2403 46.706C59.427 46.062 59.6837 45.53 60.0103 45.11C60.337 44.6853 60.7197 44.3703 61.1583 44.165C61.6017 43.9597 62.08 43.857 62.5933 43.857C63.102 43.857 63.578 43.9597 64.0213 44.165C64.4693 44.3703 64.8567 44.6853 65.1833 45.11C65.51 45.53 65.7667 46.062 65.9533 46.706C66.1447 47.35 66.2403 48.1107 66.2403 48.988ZM64.9453 48.988C64.9453 48.2227 64.88 47.581 64.7493 47.063C64.6233 46.5403 64.4507 46.1203 64.2313 45.803C64.0167 45.4857 63.767 45.2593 63.4823 45.124C63.1977 44.984 62.9013 44.914 62.5933 44.914C62.2853 44.914 61.989 44.984 61.7043 45.124C61.4197 45.2593 61.17 45.4857 60.9553 45.803C60.7407 46.1203 60.568 46.5403 60.4373 47.063C60.3113 47.581 60.2483 48.2227 60.2483 48.988C60.2483 49.7533 60.3113 50.395 60.4373 50.913C60.568 51.431 60.7407 51.8487 60.9553 52.166C61.17 52.4833 61.4197 52.712 61.7043 52.852C61.989 52.9873 62.2853 53.055 62.5933 53.055C62.9013 53.055 63.1977 52.9873 63.4823 52.852C63.767 52.712 64.0167 52.4833 64.2313 52.166C64.4507 51.8487 64.6233 51.431 64.7493 50.913C64.88 50.395 64.9453 49.7533 64.9453 48.988ZM74.3614 48.988C74.3614 49.8653 74.2658 50.626 74.0744 51.27C73.8878 51.9093 73.6311 52.439 73.3044 52.859C72.9778 53.279 72.5904 53.5917 72.1424 53.797C71.6991 54.0023 71.2231 54.105 70.7144 54.105C70.2011 54.105 69.7228 54.0023 69.2794 53.797C68.8408 53.5917 68.4581 53.279 68.1314 52.859C67.8048 52.439 67.5481 51.9093 67.3614 51.27C67.1748 50.626 67.0814 49.8653 67.0814 48.988C67.0814 48.1107 67.1748 47.35 67.3614 46.706C67.5481 46.062 67.8048 45.53 68.1314 45.11C68.4581 44.6853 68.8408 44.3703 69.2794 44.165C69.7228 43.9597 70.2011 43.857 70.7144 43.857C71.2231 43.857 71.6991 43.9597 72.1424 44.165C72.5904 44.3703 72.9778 44.6853 73.3044 45.11C73.6311 45.53 73.8878 46.062 74.0744 46.706C74.2658 47.35 74.3614 48.1107 74.3614 48.988ZM73.0664 48.988C73.0664 48.2227 73.0011 47.581 72.8704 47.063C72.7444 46.5403 72.5718 46.1203 72.3524 45.803C72.1378 45.4857 71.8881 45.2593 71.6034 45.124C71.3188 44.984 71.0224 44.914 70.7144 44.914C70.4064 44.914 70.1101 44.984 69.8254 45.124C69.5408 45.2593 69.2911 45.4857 69.0764 45.803C68.8618 46.1203 68.6891 46.5403 68.5584 47.063C68.4324 47.581 68.3694 48.2227 68.3694 48.988C68.3694 49.7533 68.4324 50.395 68.5584 50.913C68.6891 51.431 68.8618 51.8487 69.0764 52.166C69.2911 52.4833 69.5408 52.712 69.8254 52.852C70.1101 52.9873 70.4064 53.055 70.7144 53.055C71.0224 53.055 71.3188 52.9873 71.6034 52.852C71.8881 52.712 72.1378 52.4833 72.3524 52.166C72.5718 51.8487 72.7444 51.431 72.8704 50.913C73.0011 50.395 73.0664 49.7533 73.0664 48.988Z" fill="#878787"/>
<path d="M49.2072 12.817C49.3425 12.817 49.4498 12.8567 49.5292 12.936C49.6085 13.0153 49.6482 13.118 49.6482 13.244V14H42.9562V13.573C42.9562 13.4843 42.9748 13.3933 43.0122 13.3C43.0495 13.2067 43.1078 13.1203 43.1872 13.041L46.4002 9.814C46.6662 9.54333 46.9088 9.28433 47.1282 9.037C47.3475 8.785 47.5342 8.533 47.6882 8.281C47.8422 8.029 47.9612 7.77467 48.0452 7.518C48.1292 7.25667 48.1712 6.979 48.1712 6.685C48.1712 6.391 48.1245 6.13433 48.0312 5.915C47.9378 5.691 47.8095 5.50667 47.6462 5.362C47.4875 5.21733 47.2985 5.11 47.0792 5.04C46.8598 4.96533 46.6242 4.928 46.3722 4.928C46.1155 4.928 45.8798 4.96533 45.6652 5.04C45.4505 5.11467 45.2592 5.21967 45.0912 5.355C44.9278 5.48567 44.7902 5.642 44.6782 5.824C44.5662 6.006 44.4868 6.20667 44.4402 6.426C44.3842 6.58933 44.3072 6.699 44.2092 6.755C44.1158 6.80633 43.9828 6.82033 43.8102 6.797L43.1592 6.685C43.2245 6.22767 43.3505 5.824 43.5372 5.474C43.7285 5.11933 43.9665 4.823 44.2512 4.585C44.5405 4.347 44.8695 4.16733 45.2382 4.046C45.6068 3.92 46.0058 3.857 46.4352 3.857C46.8598 3.857 47.2565 3.92 47.6252 4.046C47.9938 4.172 48.3135 4.35633 48.5842 4.599C48.8548 4.837 49.0672 5.12867 49.2212 5.474C49.3752 5.81933 49.4522 6.21133 49.4522 6.65C49.4522 7.02333 49.3962 7.371 49.2842 7.693C49.1722 8.01033 49.0205 8.31367 48.8292 8.603C48.6378 8.89233 48.4162 9.17467 48.1642 9.45C47.9168 9.72533 47.6532 10.003 47.3732 10.283L44.7272 12.985C44.9138 12.9337 45.1028 12.894 45.2942 12.866C45.4855 12.8333 45.6698 12.817 45.8472 12.817H49.2072ZM54.4793 13.118C54.8059 13.118 55.0976 13.0737 55.3543 12.985C55.6156 12.8917 55.8349 12.7633 56.0123 12.6C56.1943 12.432 56.3319 12.2337 56.4253 12.005C56.5233 11.7717 56.5723 11.515 56.5723 11.235C56.5723 10.8897 56.5139 10.5957 56.3973 10.353C56.2853 10.1057 56.1313 9.905 55.9353 9.751C55.7439 9.597 55.5223 9.485 55.2703 9.415C55.0183 9.34033 54.7546 9.303 54.4793 9.303C54.2039 9.303 53.9403 9.34033 53.6883 9.415C53.4363 9.485 53.2123 9.597 53.0163 9.751C52.8249 9.905 52.6709 10.1057 52.5543 10.353C52.4423 10.5957 52.3863 10.8897 52.3863 11.235C52.3863 11.515 52.4329 11.7717 52.5263 12.005C52.6243 12.2337 52.7619 12.432 52.9393 12.6C53.1213 12.7633 53.3406 12.8917 53.5973 12.985C53.8586 13.0737 54.1526 13.118 54.4793 13.118ZM54.4793 4.823C54.1806 4.823 53.9169 4.86733 53.6883 4.956C53.4643 5.04467 53.2753 5.166 53.1213 5.32C52.9719 5.474 52.8576 5.65367 52.7783 5.859C52.7036 6.06433 52.6663 6.28367 52.6663 6.517C52.6663 6.74567 52.6989 6.96733 52.7643 7.182C52.8296 7.39667 52.9346 7.588 53.0793 7.756C53.2239 7.91933 53.4106 8.05233 53.6393 8.155C53.8726 8.253 54.1526 8.302 54.4793 8.302C54.8059 8.302 55.0836 8.253 55.3123 8.155C55.5456 8.05233 55.7346 7.91933 55.8793 7.756C56.0239 7.588 56.1289 7.39667 56.1943 7.182C56.2596 6.96733 56.2923 6.74567 56.2923 6.517C56.2923 6.28367 56.2526 6.06433 56.1733 5.859C56.0986 5.65367 55.9843 5.474 55.8303 5.32C55.6809 5.166 55.4919 5.04467 55.2633 4.956C55.0393 4.86733 54.7779 4.823 54.4793 4.823ZM55.9143 8.771C56.5396 8.94833 57.0203 9.24467 57.3563 9.66C57.6923 10.0753 57.8603 10.6073 57.8603 11.256C57.8603 11.6947 57.7763 12.0913 57.6083 12.446C57.4449 12.796 57.2139 13.0947 56.9153 13.342C56.6213 13.5893 56.2666 13.7807 55.8513 13.916C55.4359 14.0467 54.9786 14.112 54.4793 14.112C53.9799 14.112 53.5226 14.0467 53.1073 13.916C52.6919 13.7807 52.3349 13.5893 52.0363 13.342C51.7376 13.0947 51.5066 12.796 51.3433 12.446C51.1799 12.0913 51.0983 11.6947 51.0983 11.256C51.0983 10.6073 51.2663 10.0753 51.6023 9.66C51.9383 9.24467 52.4189 8.94833 53.0443 8.771C52.5169 8.575 52.1179 8.28333 51.8473 7.896C51.5813 7.504 51.4483 7.03733 51.4483 6.496C51.4483 6.12733 51.5206 5.782 51.6653 5.46C51.8099 5.138 52.0153 4.858 52.2813 4.62C52.5473 4.382 52.8646 4.19533 53.2333 4.06C53.6066 3.92467 54.0219 3.857 54.4793 3.857C54.9319 3.857 55.3449 3.92467 55.7183 4.06C56.0916 4.19533 56.4113 4.382 56.6773 4.62C56.9433 4.858 57.1486 5.138 57.2933 5.46C57.4379 5.782 57.5103 6.12733 57.5103 6.496C57.5103 7.03733 57.3749 7.504 57.1043 7.896C56.8383 8.28333 56.4416 8.575 55.9143 8.771ZM66.2403 8.988C66.2403 9.86533 66.1447 10.626 65.9533 11.27C65.7667 11.9093 65.51 12.439 65.1833 12.859C64.8567 13.279 64.4693 13.5917 64.0213 13.797C63.578 14.0023 63.102 14.105 62.5933 14.105C62.08 14.105 61.6017 14.0023 61.1583 13.797C60.7197 13.5917 60.337 13.279 60.0103 12.859C59.6837 12.439 59.427 11.9093 59.2403 11.27C59.0537 10.626 58.9603 9.86533 58.9603 8.988C58.9603 8.11067 59.0537 7.35 59.2403 6.706C59.427 6.062 59.6837 5.53 60.0103 5.11C60.337 4.68533 60.7197 4.37033 61.1583 4.165C61.6017 3.95967 62.08 3.857 62.5933 3.857C63.102 3.857 63.578 3.95967 64.0213 4.165C64.4693 4.37033 64.8567 4.68533 65.1833 5.11C65.51 5.53 65.7667 6.062 65.9533 6.706C66.1447 7.35 66.2403 8.11067 66.2403 8.988ZM64.9453 8.988C64.9453 8.22267 64.88 7.581 64.7493 7.063C64.6233 6.54033 64.4507 6.12033 64.2313 5.803C64.0167 5.48567 63.767 5.25933 63.4823 5.124C63.1977 4.984 62.9013 4.914 62.5933 4.914C62.2853 4.914 61.989 4.984 61.7043 5.124C61.4197 5.25933 61.17 5.48567 60.9553 5.803C60.7407 6.12033 60.568 6.54033 60.4373 7.063C60.3113 7.581 60.2483 8.22267 60.2483 8.988C60.2483 9.75333 60.3113 10.395 60.4373 10.913C60.568 11.431 60.7407 11.8487 60.9553 12.166C61.17 12.4833 61.4197 12.712 61.7043 12.852C61.989 12.9873 62.2853 13.055 62.5933 13.055C62.9013 13.055 63.1977 12.9873 63.4823 12.852C63.767 12.712 64.0167 12.4833 64.2313 12.166C64.4507 11.8487 64.6233 11.431 64.7493 10.913C64.88 10.395 64.9453 9.75333 64.9453 8.988ZM74.3614 8.988C74.3614 9.86533 74.2658 10.626 74.0744 11.27C73.8878 11.9093 73.6311 12.439 73.3044 12.859C72.9778 13.279 72.5904 13.5917 72.1424 13.797C71.6991 14.0023 71.2231 14.105 70.7144 14.105C70.2011 14.105 69.7228 14.0023 69.2794 13.797C68.8408 13.5917 68.4581 13.279 68.1314 12.859C67.8048 12.439 67.5481 11.9093 67.3614 11.27C67.1748 10.626 67.0814 9.86533 67.0814 8.988C67.0814 8.11067 67.1748 7.35 67.3614 6.706C67.5481 6.062 67.8048 5.53 68.1314 5.11C68.4581 4.68533 68.8408 4.37033 69.2794 4.165C69.7228 3.95967 70.2011 3.857 70.7144 3.857C71.2231 3.857 71.6991 3.95967 72.1424 4.165C72.5904 4.37033 72.9778 4.68533 73.3044 5.11C73.6311 5.53 73.8878 6.062 74.0744 6.706C74.2658 7.35 74.3614 8.11067 74.3614 8.988ZM73.0664 8.988C73.0664 8.22267 73.0011 7.581 72.8704 7.063C72.7444 6.54033 72.5718 6.12033 72.3524 5.803C72.1378 5.48567 71.8881 5.25933 71.6034 5.124C71.3188 4.984 71.0224 4.914 70.7144 4.914C70.4064 4.914 70.1101 4.984 69.8254 5.124C69.5408 5.25933 69.2911 5.48567 69.0764 5.803C68.8618 6.12033 68.6891 6.54033 68.5584 7.063C68.4324 7.581 68.3694 8.22267 68.3694 8.988C68.3694 9.75333 68.4324 10.395 68.5584 10.913C68.6891 11.431 68.8618 11.8487 69.0764 12.166C69.2911 12.4833 69.5408 12.712 69.8254 12.852C70.1101 12.9873 70.4064 13.055 70.7144 13.055C71.0224 13.055 71.3188 12.9873 71.6034 12.852C71.8881 12.712 72.1378 12.4833 72.3524 12.166C72.5718 11.8487 72.7444 11.431 72.8704 10.913C73.0011 10.395 73.0664 9.75333 73.0664 8.988Z" fill="#878787"/>
<path d="M107.515 206C135.862 198.038 163.237 188.343 191.678 180.505C219.388 172.868 246.834 164.987 274.178 156.663C289.138 152.109 304.629 147.576 318.812 141.783C321.404 140.725 324.591 138.112 327.596 137.867C332.011 137.508 335.857 135.608 340.416 135.518C349.618 135.336 359.716 132.31 368.846 131.167C379.884 129.786 390.154 126.904 401.372 126.904C414.339 126.904 427.347 127.128 440.307 126.86C464.196 126.367 489.431 121.452 512.659 117.419C533.648 113.775 554.093 108.447 572.842 100.625C589.006 93.8822 606.043 87.0252 620.087 78.0013C630.147 71.5379 639.587 67.4213 651.07 62.6867C662.638 57.9169 674.402 52.3966 685.494 47.0241C694.028 42.8909 702.482 39.1512 710.601 34.494C726.446 25.4039 742.835 11 764.552 11" stroke="#1F62AF" stroke-linecap="round"/>
<line x1="161.109" y1="209" x2="161.109" y2="216" stroke="#9E9E9E"/>
<line x1="362.866" y1="209" x2="362.866" y2="216" stroke="#9E9E9E"/>
<line x1="564.623" y1="209" x2="564.623" y2="216" stroke="#9E9E9E"/>
<line x1="261.988" y1="209" x2="261.988" y2="216" stroke="#9E9E9E"/>
<line x1="463.744" y1="209" x2="463.744" y2="216" stroke="#9E9E9E"/>
<line x1="665.501" y1="209" x2="665.501" y2="216" stroke="#9E9E9E"/>
</svg>
